<svg xmlns="http://www.w3.org/2000/svg" fill="none" viewBox="0 0 500 500">
  
  
  
  
  
  
  
  
<g transform="matrix(2.5,0,0,2.5,0,0)"><path fill="#e6e6e6" d="M122.724 108.7C120.338 110.17 112.772 111.143 109.557 111.322H124.057C123.675 110.418 123.23 109.541 122.724 108.7V108.7Z"></path><path fill="#e6e6e6" d="M52.26 101.434C50.221 100.299 49.72 100.758 51.702 102.793C51.8973 102.993 52.099 103.188 52.307 103.379C51.2185 103.232 50.117 103.208 49.023 103.306C48.723 103.363 48.396 103.781 50.239 104.294C52.6989 104.986 55.0902 105.902 57.383 107.03L57.649 104.218C55.7851 103.427 53.9836 102.496 52.26 101.434V101.434Z"></path><path fill="#e6e6e6" d="M54.894 109.234C53.76 109.577 52.594 110.292 55.882 110.412C56.224 110.424 56.623 110.45 57.041 110.507L57.231 108.607C56.471 108.854 55.486 109.055 54.894 109.234Z"></path><path fill="#e6e6e6" d="M125.1 114.63H77.561L60.081 150.921C60.9104 151.654 61.7917 152.326 62.718 152.932L60.1 158.444C63.8613 159.477 67.8237 159.536 71.614 158.615L72.578 156.366C73.5393 156.46 74.5052 156.501 75.471 156.487L82.317 143.958L80.259 154.358C81.1839 154.814 82.1352 155.215 83.108 155.558L82.349 158.613C85.7765 159.592 89.4095 159.592 92.837 158.613L93.159 157.174C94.078 157.168 95.003 157.132 95.934 157.055L103.477 126.541L105.757 126.883L121.622 125.61C124.884 122.943 126.305 119.628 125.1 114.63Z"></path><path fill="#e6e6e6" d="M101.748 106L101.406 104.233L99.088 103.378C98.806 103.171 98.545 102.936 98.309 102.678C97.2994 101.677 96.4186 100.553 95.687 99.334C95.155 98.441 94.167 98.65 95.687 102.146C95.3127 102.015 94.9232 101.932 94.528 101.899C94.167 101.899 90.044 103.099 88.049 103.647C86.738 104.008 86.111 104.597 88.239 104.54C89.132 104.502 90.12 104.388 91.013 104.274C89.189 104.901 87.175 105.474 85.332 106.06C84.382 106.36 86.073 107.447 91.811 105.794C90.5 106.554 88.961 107.314 87.611 108.036C86.756 108.492 87.535 109.499 92.589 107.39C92.019 108.131 91.373 108.929 90.404 109.974C89.777 110.639 90.917 111.038 95.154 108.074C95.933 107.542 96.354 108.131 97.377 108.986C97.985 109.499 98.498 110.031 98.977 110.468C99.1781 110.716 99.4293 110.919 99.7142 111.063C99.9991 111.207 100.311 111.289 100.63 111.304C101.6 111.191 102.09 108.816 101.748 106Z"></path><path fill="#e6e6e6" d="M109.918 69.98C109.234 70.474 109.044 70.36 109.006 69.942C109.158 67.833 107.524 64.204 105.092 67.605C104.997 67.605 100.285 75.053 105.225 74.977C105.74 74.97 106.251 74.8933 106.745 74.749L104.921 76.459C104.688 77.1017 104.326 77.69 103.857 78.188C105.398 79.281 107.54 78.928 109.329 78.34C108.208 76.364 109.329 72.716 109.69 72.54C112.312 71.386 111.305 68.973 109.918 69.98Z"></path><g>
    <path fill="#76b8ac" d="M105.206 75C105.174 75.4992 105.073 75.9916 104.906 76.463L106.73 74.753C106.234 74.8986 105.722 74.9816 105.206 75V75Z"></path>
    <path fill="#76b8ac" d="M112.464 91.108V99.962C112.958 99.886 113.452 99.81 113.946 99.715C113.682 96.8111 113.186 93.933 112.464 91.108V91.108Z"></path>
    <path fill="#76b8ac" d="M101.387 104.237L99.069 103.382C98.803 103.154 98.537 102.907 98.29 102.66C98.9 100.019 100.532 101.007 101.387 104.237Z"></path>
    <path fill="#76b8ac" d="M83.679 71.557V95.573C83.6785 96.4496 83.33 97.2902 82.7101 97.9101C82.0902 98.53 81.2497 98.8785 80.373 98.879H79.119C79.9957 98.8785 80.8362 98.53 81.4561 97.9101C82.076 97.2902 82.4245 96.4496 82.425 95.573V71.557C82.4245 70.6804 82.076 69.8398 81.4561 69.2199C80.8362 68.6 79.9957 68.2515 79.119 68.251H80.373C81.2497 68.2515 82.0902 68.6 82.7101 69.2199C83.33 69.8398 83.6785 70.6804 83.679 71.557V71.557Z"></path>
    <path fill="#76b8ac" d="M71.69 110.488H69.22C68.8238 110.492 68.4403 110.348 68.1444 110.085C67.8485 109.821 67.6616 109.457 67.62 109.063L66.579 98.9H65.325L66.712 111.554H72.735C72.7377 111.415 72.7126 111.277 72.6613 111.148C72.61 111.019 72.5334 110.901 72.4362 110.802C72.3389 110.703 72.2228 110.624 72.0947 110.57C71.9666 110.516 71.829 110.488 71.69 110.488V110.488Z"></path>
    <path fill="#76b8ac" d="M113.889 68.137C114.113 67.8674 114.234 67.5266 114.229 67.176C114.224 66.8254 114.095 66.4879 113.863 66.2245C113.632 65.961 113.314 65.7888 112.967 65.7388C112.62 65.6889 112.266 65.7645 111.97 65.952C112.131 65.6629 112.189 65.3281 112.136 65.0017C112.084 64.6752 111.923 64.376 111.679 64.1522C111.435 63.9284 111.124 63.7931 110.794 63.768C110.464 63.743 110.136 63.8296 109.861 64.014C110.747 62.419 108.207 61.056 107.261 62.589C106.676 64.3199 105.945 65.9979 105.076 67.605C107.508 64.205 109.142 67.814 108.99 69.942C109.009 70.36 109.218 70.474 109.902 69.98C111.308 68.954 112.315 71.348 109.693 72.526C108.885 74.0803 108.649 75.8695 109.028 77.58C109.009 77.314 108.705 72.013 114.69 70.911C115 70.8453 115.278 70.6757 115.478 70.4304C115.678 70.185 115.788 69.8786 115.79 69.562C115.792 69.3308 115.74 69.1023 115.637 68.8951C115.535 68.6878 115.385 68.5076 115.2 68.3689C115.015 68.2302 114.8 68.137 114.572 68.0967C114.344 68.0564 114.11 68.0702 113.889 68.137V68.137Z"></path>
    <path fill="#76b8ac" d="M107.885 83.755C107.885 83.9364 107.813 84.1104 107.685 84.2387C107.556 84.3669 107.382 84.439 107.201 84.439C107.02 84.439 106.846 84.3669 106.717 84.2387C106.589 84.1104 106.517 83.9364 106.517 83.755C106.517 83.5736 106.589 83.3996 106.717 83.2713C106.846 83.1431 107.02 83.071 107.201 83.071C107.382 83.071 107.556 83.1431 107.685 83.2713C107.813 83.3996 107.885 83.5736 107.885 83.755V83.755Z"></path>
    <path fill="#76b8ac" d="M101.311 90.082C101.311 90.2634 101.239 90.4374 101.111 90.5657C100.982 90.6939 100.808 90.766 100.627 90.766C100.446 90.766 100.272 90.6939 100.143 90.5657C100.015 90.4374 99.9431 90.2634 99.9431 90.082C99.9431 89.9006 100.015 89.7266 100.143 89.5983C100.272 89.4701 100.446 89.398 100.627 89.398C100.808 89.398 100.982 89.4701 101.111 89.5983C101.239 89.7266 101.311 89.9006 101.311 90.082V90.082Z"></path>
    <path fill="#76b8ac" d="M106.422 97.245C106.422 97.4264 106.35 97.6004 106.222 97.7287C106.093 97.8569 105.919 97.929 105.738 97.929C105.557 97.929 105.383 97.8569 105.254 97.7287C105.126 97.6004 105.054 97.4264 105.054 97.245C105.054 97.0636 105.126 96.8896 105.254 96.7613C105.383 96.6331 105.557 96.561 105.738 96.561C105.919 96.561 106.093 96.6331 106.222 96.7613C106.35 96.8896 106.422 97.0636 106.422 97.245V97.245Z"></path>
    <path fill="#76b8ac" d="M144 99.392H137.16C136.918 99.392 136.686 99.4881 136.515 99.6591C136.344 99.8302 136.248 100.062 136.248 100.304V110.412C136.248 110.654 136.344 110.886 136.515 111.057C136.686 111.228 136.918 111.324 137.16 111.324H144C144.241 111.321 144.471 111.223 144.641 111.053C144.812 110.883 144.909 110.653 144.912 110.412V100.3C144.911 100.059 144.814 99.8279 144.644 99.6577C144.473 99.4875 144.241 99.392 144 99.392V99.392Z"></path>
    <path fill="#76b8ac" d="M143 51.3L133.747 53.827C133.582 53.8716 133.431 53.9589 133.31 54.0801C133.189 54.2014 133.102 54.3524 133.057 54.518C133.013 54.6835 133.013 54.8578 133.057 55.0233C133.102 55.1888 133.189 55.3398 133.31 55.461L141.632 63.707C141.753 63.8281 141.904 63.9153 142.07 63.9596C142.235 64.004 142.41 64.004 142.575 63.9598C142.741 63.9155 142.892 63.8284 143.013 63.7074C143.134 63.5863 143.221 63.4355 143.266 63.27L145.736 53.846L143 51.3Z"></path>
    <path fill="#76b8ac" d="M149.723 47.2C149.557 47.0364 149.361 46.9071 149.145 46.8195C148.929 46.7319 148.698 46.6877 148.465 46.6895C148.232 46.6912 148.002 46.7389 147.787 46.8298C147.573 46.9206 147.378 47.0529 147.215 47.219L143.358 51.114L145.958 53.527L149.739 49.708C150.066 49.3713 150.247 48.9198 150.244 48.4507C150.241 47.9816 150.054 47.5325 149.723 47.2V47.2Z"></path>
    <path fill="#76b8ac" d="M67.814 34.7C67.8134 34.9405 67.7415 35.1753 67.6075 35.375C67.4734 35.5746 67.2832 35.73 67.0608 35.8215C66.8385 35.913 66.594 35.9365 66.3582 35.8891C66.1225 35.8417 65.9061 35.7255 65.7364 35.5551C65.5667 35.3847 65.4514 35.1678 65.4049 34.9319C65.3585 34.696 65.383 34.4516 65.4754 34.2296C65.5679 34.0076 65.724 33.818 65.9242 33.6848C66.1244 33.5515 66.3596 33.4806 66.6 33.481C66.7599 33.4807 66.9183 33.5121 67.0661 33.5733C67.2138 33.6346 67.348 33.7244 67.4608 33.8378C67.5737 33.9511 67.663 34.0856 67.7236 34.2336C67.7842 34.3816 67.8149 34.5401 67.814 34.7V34.7Z"></path>
    <path fill="#76b8ac" d="M92.837 158.615C89.4095 159.594 85.7765 159.594 82.349 158.615C79.138 159.546 72.83 164.03 72.83 164.03H94.053C93.8522 162.185 93.4443 160.369 92.837 158.615V158.615Z"></path>
    <path fill="#76b8ac" d="M71.614 158.615C67.8237 159.536 63.8613 159.477 60.1 158.444C56.6565 159.573 53.5216 161.485 50.942 164.03H72.811C72.5444 162.198 72.1444 160.388 71.614 158.615V158.615Z"></path>
    <path fill="#76b8ac" d="M109.519 126.581L105.757 126.885L103.477 126.543L103.952 124.624L109.519 126.581Z"></path>
    <path fill="#76b8ac" d="M175.316 111.324H27.61C27.1716 111.324 26.7512 111.498 26.4412 111.808C26.1312 112.118 25.957 112.539 25.957 112.977C25.957 113.415 26.1312 113.836 26.4412 114.146C26.7512 114.456 27.1716 114.63 27.61 114.63H47.853L38.535 166.215C38.5193 166.309 38.5129 166.405 38.516 166.5H41.86L51.224 114.63H151.737L161.104 166.519H164.448C164.429 166.424 164.429 166.329 164.41 166.219L155.093 114.634H175.316C175.754 114.634 176.175 114.46 176.485 114.15C176.795 113.84 176.969 113.419 176.969 112.981C176.969 112.543 176.795 112.122 176.485 111.812C176.175 111.502 175.754 111.328 175.316 111.328V111.324Z"></path>
  </g><g>
    <path stroke="#76b8ac" stroke-linecap="round" stroke-linejoin="round" stroke-width=".75" d="M97.074 108.74C96.2853 109.808 95.2011 110.622 93.9552 111.081C92.7093 111.54 91.3563 111.625 90.063 111.324"></path>
    <path stroke="#76b8ac" stroke-linecap="round" stroke-linejoin="round" stroke-width=".75" d="M54.1 105.548C54.1 105.548 44.861 104.694 43.588 111.324"></path>
    <path stroke="#76b8ac" stroke-linecap="round" stroke-linejoin="round" stroke-width=".75" d="M57.383 107.03C57.098 106.878 56.868 106.73 56.642 106.593C55.568 105.944 55.179 105.51 54.229 104.883C53.3154 104.277 52.4683 103.577 51.702 102.793C49.592 100.628 50.296 100.247 52.671 101.672C52.6854 101.674 52.6988 101.681 52.709 101.691C54.286 102.646 55.9307 103.485 57.63 104.2"></path>
    <path stroke="#76b8ac" stroke-linecap="round" stroke-linejoin="round" stroke-width=".75" d="M56.642 106.593C54.5661 105.675 52.4273 104.906 50.242 104.293C48.4 103.775 48.722 103.36 49.026 103.305C50.1484 103.22 51.2769 103.264 52.389 103.438"></path>
    <path stroke="#76b8ac" stroke-linecap="round" stroke-linejoin="round" stroke-width=".75" d="M57.041 110.488C56.623 110.431 56.224 110.405 55.882 110.393C52.597 110.273 53.755 109.542 54.894 109.215C55.484 109.046 56.452 108.854 57.231 108.588"></path>
    <path stroke="#76b8ac" stroke-linecap="round" stroke-linejoin="round" stroke-width=".75" d="M128.101 128.519L133.516 166.519"></path>
    <path stroke="#76b8ac" stroke-linecap="round" stroke-linejoin="round" stroke-width=".75" d="M133.972 100.931L125.08 100.285"></path>
    <path stroke="#76b8ac" stroke-linecap="round" stroke-linejoin="round" stroke-width=".75" d="M93.159 157.176L92.837 158.615"></path>
    <path stroke="#76b8ac" stroke-linecap="round" stroke-linejoin="round" stroke-width=".75" d="M82.33 158.615L83.108 155.56"></path>
    <path stroke="#76b8ac" stroke-linecap="round" stroke-linejoin="round" stroke-width=".75" d="M72.583 156.354L71.614 158.615"></path>
    <path stroke="#76b8ac" stroke-linecap="round" stroke-linejoin="round" stroke-width=".75" d="M60.081 158.463L62.718 152.932"></path>
    <path stroke="#76b8ac" stroke-linecap="round" stroke-linejoin="round" stroke-width=".75" d="M82.33 143.909L75.471 156.487C69.8159 156.681 64.3036 154.688 60.081 150.921L77.561 114.63"></path>
    <path stroke="#76b8ac" stroke-linecap="round" stroke-linejoin="round" stroke-width=".75" d="M119.817 109.766C122.553 123.883 108.796 122.501 101.976 120.976C101.492 120.868 100.991 120.857 100.502 120.944C100.014 121.031 99.5477 121.214 99.1306 121.483C98.7135 121.752 98.3538 122.101 98.0726 122.509C97.7913 122.918 97.594 123.378 97.492 123.864L90.481 157.1"></path>
    <path stroke="#76b8ac" stroke-linecap="round" stroke-linejoin="round" stroke-width=".75" d="M65.772 102.856L87.308 99.356C90.861 93.956 95.081 81.448 101.197 79.71C102.2 79.4542 103.113 78.9285 103.838 78.19"></path>
    <path stroke="#76b8ac" stroke-linecap="round" stroke-linejoin="round" stroke-width=".75" d="M105.206 75C105.71 74.982 106.21 74.9082 106.697 74.78L104.897 76.463"></path>
    <path stroke="#76b8ac" stroke-linecap="round" stroke-linejoin="round" stroke-width=".75" d="M109.329 78.34C109.623 78.8804 110.112 79.2881 110.697 79.48C113.736 80.6144 116.553 82.2728 119.019 84.38C121.833 86.962 124.319 96.423 125.403 102.658C125.665 104.124 125.364 105.634 124.561 106.888C123.758 108.142 122.512 109.047 121.071 109.422C117.312 110.466 113.452 111.103 109.557 111.322"></path>
    <path stroke="#76b8ac" stroke-linecap="round" stroke-linejoin="round" stroke-width=".75" d="M116.112 99.278C110.597 100.342 105.006 100.964 99.392 101.14"></path>
    <path stroke="#76b8ac" stroke-linecap="round" stroke-linejoin="round" stroke-width=".75" d="M113.927 99.7C113.68 96.7939 113.184 93.9144 112.445 91.093V99.966"></path>
    <path stroke="#76b8ac" stroke-linecap="round" stroke-linejoin="round" stroke-width=".75" d="M69.049 102.318C70.78 104.972 71.3945 108.201 70.759 111.305"></path>
    <path stroke="#76b8ac" stroke-linecap="round" stroke-linejoin="round" stroke-width=".75" d="M92.533 103.724C91.07 104.37 87.327 105.435 85.313 106.08C84.363 106.38 86.054 107.467 91.792 105.814"></path>
    <path stroke="#76b8ac" stroke-linecap="round" stroke-linejoin="round" stroke-width=".75" d="M92.818 105.206C91.431 106.08 89.418 107.086 87.593 108.056C86.738 108.511 87.517 109.5 92.571 107.41"></path>
    <path stroke="#76b8ac" stroke-linecap="round" stroke-linejoin="round" stroke-width=".75" d="M93.217 106.593C92.417 107.581 91.724 108.539 90.386 109.975C89.763 110.644 90.907 111.05 95.136 108.075C95.916 107.526 96.336 108.128 97.359 108.987C98.712 110.122 99.62 111.438 100.608 111.305"></path>
    <path stroke="#76b8ac" stroke-linecap="round" stroke-linejoin="round" stroke-width=".75" d="M95.687 102.166C94.167 98.666 95.155 98.466 95.687 99.354C96.5888 100.81 97.6808 102.138 98.934 103.305"></path>
    <path stroke="#76b8ac" stroke-linecap="round" stroke-linejoin="round" stroke-width=".75" d="M98.29 102.66C98.764 100.6 99.863 100.748 100.729 102.446C101.729 104.41 102.641 111.324 100.551 111.324"></path>
    <path stroke="#76b8ac" stroke-linecap="round" stroke-linejoin="round" stroke-width=".75" d="M101.317 104.211C99.082 103.377 95.496 101.919 94.528 101.919C94.167 101.919 90.044 103.119 88.049 103.667C86.738 104.029 86.112 104.634 88.239 104.56C89.132 104.529 90.12 104.408 91.013 104.294"></path>
    <path stroke="#76b8ac" stroke-linecap="round" stroke-linejoin="round" stroke-width=".75" d="M97.15 89.4C96.326 93.4235 96.3778 97.5773 97.302 101.579"></path>
    <path stroke="#76b8ac" stroke-linecap="round" stroke-linejoin="round" stroke-width=".75" d="M66.712 111.552H56.946L58.162 98.898H65.344L66.712 111.552Z"></path>
    <path stroke="#76b8ac" stroke-linecap="round" stroke-linejoin="round" stroke-width=".75" d="M64.85 84.363C64.7927 85.06 64.5336 85.7251 64.1045 86.2773C63.6753 86.8294 63.0946 87.2446 62.4334 87.4721C61.7721 87.6997 61.0589 87.7297 60.3809 87.5585C59.7028 87.3873 59.0893 87.0223 58.6153 86.5082C58.1413 85.9941 57.8273 85.353 57.7117 84.6633C57.596 83.9736 57.6838 83.2652 57.9642 82.6246C58.2446 81.9839 58.7055 81.4388 59.2906 81.0558C59.8757 80.6729 60.5597 80.4686 61.259 80.468C62.2516 80.5086 63.1875 80.9416 63.8609 81.672C64.5343 82.4024 64.8901 83.3704 64.85 84.363V84.363Z"></path>
    <path stroke="#76b8ac" stroke-linecap="round" stroke-linejoin="round" stroke-width=".75" d="M63.425 78.834C62.8492 79.2591 62.145 79.4737 61.43 79.442C61.5 78.7303 61.8158 78.0652 62.323 77.561C62.8988 77.1359 63.603 76.9213 64.318 76.953C64.248 77.6647 63.9322 78.3298 63.425 78.834V78.834Z"></path>
    <path stroke="#76b8ac" stroke-linecap="round" stroke-linejoin="round" stroke-width=".75" d="M105.073 67.624C105.94 66.0161 106.671 64.3382 107.258 62.608C107.439 62.3422 107.7 62.1411 108.003 62.034C108.306 61.9269 108.635 61.9195 108.943 62.0129C109.251 62.1062 109.52 62.2954 109.713 62.5529C109.905 62.8103 110.01 63.1226 110.013 63.444C110.011 63.6498 109.959 63.8519 109.861 64.033C110.136 63.8486 110.464 63.762 110.794 63.787C111.124 63.8121 111.435 63.9474 111.679 64.1712C111.922 64.395 112.084 64.6942 112.136 65.0207C112.189 65.3471 112.131 65.6819 111.97 65.971C112.266 65.7835 112.62 65.7079 112.967 65.7578C113.314 65.8078 113.632 65.98 113.863 66.2435C114.095 66.5069 114.224 66.8444 114.229 67.195C114.234 67.5456 114.113 67.8864 113.889 68.156C114.072 68.0972 114.264 68.0756 114.456 68.0925C114.647 68.1095 114.833 68.1646 115.002 68.2547C115.172 68.3447 115.321 68.4679 115.442 68.6168C115.563 68.7657 115.653 68.9375 115.707 69.1218C115.76 69.3061 115.776 69.4993 115.754 69.6899C115.731 69.8805 115.671 70.0647 115.576 70.2315C115.481 70.3983 115.354 70.5444 115.201 70.6612C115.049 70.7779 114.875 70.8628 114.689 70.911C113.071 71.0856 111.581 71.8747 110.527 73.1157C109.474 74.3566 108.937 75.9546 109.027 77.58"></path>
    <path stroke="#76b8ac" stroke-linecap="round" stroke-linejoin="round" stroke-width=".75" d="M109.329 78.34L108.968 81.19L106.061 78.891L102.774 80.544L103.838 78.188"></path>
    <path stroke="#76b8ac" stroke-linecap="round" stroke-linejoin="round" stroke-width=".75" d="M106.061 78.891C103.667 84.933 102.812 92.514 102.774 100.95"></path>
    <path stroke="#76b8ac" stroke-linecap="round" stroke-linejoin="round" stroke-width=".75" d="M144.916 102.641C145.637 102.641 146.328 102.927 146.837 103.437C147.347 103.946 147.633 104.637 147.633 105.358C147.633 106.079 147.347 106.77 146.837 107.279C146.328 107.789 145.637 108.075 144.916 108.075"></path>
    <path stroke="#76b8ac" stroke-linecap="round" stroke-linejoin="round" stroke-width=".75" d="M169.825 77.428C169.825 77.7587 169.727 78.082 169.543 78.3569C169.36 78.6319 169.098 78.8462 168.793 78.9727C168.487 79.0993 168.151 79.1324 167.827 79.0679C167.502 79.0034 167.205 78.8441 166.971 78.6103C166.737 78.3764 166.578 78.0785 166.513 77.7542C166.449 77.4299 166.482 77.0937 166.608 76.7882C166.735 76.4826 166.949 76.2215 167.224 76.0378C167.499 75.8541 167.822 75.756 168.153 75.756C168.373 75.7547 168.591 75.797 168.794 75.8806C168.998 75.9641 169.183 76.0872 169.338 76.2428C169.494 76.3983 169.617 76.5831 169.7 76.7866C169.784 76.99 169.826 77.2081 169.825 77.428V77.428Z"></path>
    <path stroke="#76b8ac" stroke-linecap="round" stroke-linejoin="round" stroke-width=".75" d="M156.392 106.498L168.153 79.1"></path>
    <path stroke="#76b8ac" stroke-linecap="round" stroke-linejoin="round" stroke-width=".75" d="M168.153 75.756L151.015 56.528"></path>
    <path stroke="#76b8ac" stroke-linecap="round" stroke-linejoin="round" stroke-width=".75" d="M148.963 55.217L146.056 53.355"></path>
    <path stroke="#76b8ac" stroke-linecap="round" stroke-linejoin="round" stroke-width=".75" d="M139.216 61.316C138.908 61.5565 138.543 61.7144 138.156 61.7748C137.77 61.8351 137.375 61.7959 137.008 61.6609C136.64 61.5259 136.314 61.2994 136.059 61.003C135.803 60.7066 135.628 60.3501 135.549 59.967C135.482 59.6435 135.487 59.3094 135.562 58.9878C135.638 58.6662 135.782 58.3649 135.986 58.105"></path>
    <path stroke="#76b8ac" stroke-linecap="round" stroke-linejoin="round" stroke-width=".75" d="M151.3 55.749C151.3 55.9933 151.228 56.232 151.092 56.4351C150.956 56.6382 150.763 56.7965 150.538 56.89C150.312 56.9835 150.064 57.0079 149.824 56.9603C149.585 56.9126 149.364 56.795 149.192 56.6223C149.019 56.4496 148.901 56.2295 148.854 55.9899C148.806 55.7504 148.831 55.5021 148.924 55.2764C149.018 55.0507 149.176 54.8578 149.379 54.7221C149.582 54.5864 149.821 54.514 150.065 54.514C150.391 54.5181 150.703 54.6496 150.934 54.8803C151.164 55.111 151.296 55.4227 151.3 55.749V55.749Z"></path>
    <path stroke="#76b8ac" stroke-linecap="round" stroke-linejoin="round" stroke-width=".75" d="M157.608 107.733C157.608 107.977 157.536 108.216 157.4 108.419C157.264 108.622 157.071 108.781 156.846 108.874C156.62 108.967 156.372 108.992 156.132 108.944C155.893 108.897 155.672 108.779 155.5 108.606C155.327 108.434 155.209 108.214 155.162 107.974C155.114 107.734 155.139 107.486 155.232 107.26C155.325 107.035 155.484 106.842 155.687 106.706C155.89 106.57 156.129 106.498 156.373 106.498C156.535 106.498 156.696 106.529 156.846 106.591C156.996 106.653 157.132 106.744 157.247 106.859C157.362 106.974 157.453 107.11 157.515 107.26C157.577 107.41 157.608 107.571 157.608 107.733Z"></path>
    <path stroke="#76b8ac" stroke-linecap="round" stroke-linejoin="round" stroke-width=".75" d="M105.757 131.122L103.477 166.519"></path>
    <path stroke="#76b8ac" stroke-linecap="round" stroke-linejoin="round" stroke-width=".75" d="M68.536 51.493H57.212V40.169H68.536V51.493Z"></path>
    <path stroke="#76b8ac" stroke-linecap="round" stroke-linejoin="round" stroke-width=".75" d="M62.874 42.753L66.18 35.78"></path>
    <path stroke="#76b8ac" stroke-linecap="round" stroke-linejoin="round" stroke-width=".75" d="M30.289 133.088H21.644"></path>
    <path stroke="#76b8ac" stroke-linecap="round" stroke-linejoin="round" stroke-width=".75" d="M25.957 137.411V128.766"></path>
    <path stroke="#76b8ac" stroke-linecap="round" stroke-linejoin="round" stroke-width=".75" d="M170.167 127.607C170.212 128.103 170.109 128.601 169.871 129.038C169.633 129.476 169.27 129.833 168.829 130.064C168.388 130.296 167.889 130.391 167.394 130.339C166.898 130.286 166.43 130.088 166.047 129.769C165.665 129.45 165.385 129.025 165.244 128.548C165.103 128.07 165.107 127.561 165.255 127.086C165.403 126.61 165.689 126.189 166.076 125.876C166.464 125.563 166.935 125.372 167.431 125.327C167.761 125.293 168.094 125.326 168.412 125.423C168.729 125.52 169.023 125.679 169.278 125.892C169.533 126.104 169.743 126.365 169.896 126.66C170.048 126.954 170.14 127.276 170.167 127.607V127.607Z"></path>
    <path stroke="#76b8ac" stroke-linecap="round" stroke-linejoin="round" stroke-width=".75" d="M5 166.519H195"></path>
    <path stroke="#76b8ac" stroke-linecap="round" stroke-linejoin="round" stroke-width=".75" d="M72.83 164.03H94.053"></path>
    <path stroke="#76b8ac" stroke-linecap="round" stroke-linejoin="round" stroke-width=".75" d="M50.923 164.03H72.792"></path>
    <path stroke="#76b8ac" stroke-linecap="round" stroke-linejoin="round" stroke-width=".75" d="M72.829 164C72.6277 162.165 72.2201 160.358 71.614 158.614C67.8237 159.535 63.8613 159.476 60.1 158.443C55.5922 159.974 51.6211 162.771 48.662 166.5C57.44 166.5 63.273 166.519 69.885 166.5"></path>
    <path stroke="#76b8ac" stroke-linecap="round" stroke-linejoin="round" stroke-width=".75" d="M92.837 158.615C89.4095 159.594 85.7765 159.594 82.349 158.615C77.617 159.987 71.562 164.823 69.885 166.5C79.917 166.5 86.225 166.405 94.11 166.405C94.1795 163.751 93.7476 161.108 92.837 158.615Z"></path>
    <path stroke="#76b8ac" stroke-linecap="round" stroke-linejoin="round" stroke-width=".75" d="M103.477 126.543L103.952 124.624L109.519 126.581"></path>
    <path stroke="#76b8ac" stroke-linecap="round" stroke-linejoin="round" stroke-width=".75" d="M103.477 126.543L105.757 126.885L126.274 125.209"></path>
    <path stroke="#76b8ac" stroke-linecap="round" stroke-linejoin="round" stroke-width=".75" d="M128.918 125.403L122.458 124.928"></path>
    <path stroke="#76b8ac" stroke-linecap="round" stroke-linejoin="round" stroke-width=".75" d="M69.239 155.784L85.313 128.823"></path>
    <path stroke="#76b8ac" stroke-linecap="round" stroke-linejoin="round" stroke-width=".75" d="M104.313 100.836C106.023 103.363 106.46 106.859 105.586 111.324"></path>
    <path stroke="#76b8ac" stroke-linecap="round" stroke-linejoin="round" stroke-width=".75" d="M176.969 112.977C176.969 113.415 176.795 113.836 176.485 114.146C176.175 114.455 175.754 114.63 175.316 114.63H27.61C27.1716 114.63 26.7512 114.456 26.4412 114.146C26.1312 113.836 25.957 113.415 25.957 112.977C25.957 112.539 26.1312 112.118 26.4412 111.808C26.7512 111.498 27.1716 111.324 27.61 111.324H175.316C175.754 111.324 176.175 111.499 176.485 111.808C176.795 112.118 176.969 112.539 176.969 112.977V112.977Z"></path>
    <path stroke="#76b8ac" stroke-linecap="round" stroke-linejoin="round" stroke-width=".75" d="M102.432 130.742L105.757 131.122L126.557 129.393C126.994 129.359 127.409 129.188 127.743 128.905C128.077 128.622 128.314 128.241 128.419 127.816L137.406 84.249C137.504 83.7813 137.499 83.2981 137.391 82.8326C137.284 82.367 137.077 81.9304 136.784 81.5528C136.491 81.1752 136.12 80.8657 135.696 80.6456C135.272 80.4255 134.805 80.3001 134.328 80.278L109.975 79.1"></path>
    <path stroke="#76b8ac" stroke-linecap="round" stroke-linejoin="round" stroke-width=".75" d="M94.547 114.06C92.6012 114.435 90.8114 115.382 89.4068 116.78C88.0021 118.178 87.0465 119.963 86.662 121.907L80.262 154.359C85.1438 156.669 90.5637 157.603 95.937 157.059C95.937 156.965 101.756 133.498 103.48 126.545"></path>
    <path stroke="#76b8ac" stroke-linecap="round" stroke-linejoin="round" stroke-width=".75" d="M79.119 68.251C79.9957 68.2515 80.8362 68.6 81.4561 69.2199C82.076 69.8398 82.4245 70.6804 82.425 71.557V95.592C82.425 96.469 82.0768 97.3101 81.4568 97.9304C80.8369 98.5507 79.996 98.8995 79.119 98.9H46.268C45.3905 98.8997 44.5488 98.5516 43.9274 97.932C43.3061 97.3123 42.9557 96.4716 42.953 95.594V71.557C42.9522 71.1231 43.037 70.6934 43.2025 70.2923C43.368 69.8912 43.6109 69.5267 43.9174 69.2197C44.2239 68.9126 44.588 68.669 44.9888 68.5028C45.3895 68.3366 45.8191 68.251 46.253 68.251H79.119Z"></path>
    <path stroke="#76b8ac" stroke-linecap="round" stroke-linejoin="round" stroke-width=".75" d="M83.679 71.557V95.573C83.6785 96.4496 83.33 97.2902 82.7101 97.9101C82.0902 98.53 81.2497 98.8785 80.373 98.879H79.119C79.9957 98.8785 80.8362 98.53 81.4561 97.9101C82.076 97.2902 82.4245 96.4496 82.425 95.573V71.557C82.4245 70.6804 82.076 69.8398 81.4561 69.2199C80.8362 68.6 79.9957 68.2515 79.119 68.251H80.373C81.2497 68.2515 82.0902 68.6 82.7101 69.2199C83.33 69.8398 83.6785 70.6804 83.679 71.557V71.557Z"></path>
    <path stroke="#76b8ac" stroke-linecap="round" stroke-linejoin="round" stroke-width=".75" d="M109.9 70C111.3 68.968 112.3 71.353 109.691 72.546C109.328 72.712 108.209 76.365 109.33 78.346C107.54 78.935 105.378 79.286 103.839 78.194C104.652 77.3206 105.135 76.1912 105.206 75C100.266 75.076 104.978 67.609 105.073 67.609C107.488 64.232 109.116 67.785 108.99 69.901C108.953 70.526 109.391 70.373 109.9 70Z"></path>
    <path stroke="#76b8ac" stroke-linecap="round" stroke-linejoin="round" stroke-width=".75" d="M122.724 108.7C124.33 111.32 125.29 114.285 125.524 117.35C125.618 118.924 125.321 120.498 124.657 121.929C123.994 123.36 122.986 124.604 121.724 125.55"></path>
    <path stroke="#76b8ac" stroke-linecap="round" stroke-linejoin="round" stroke-width=".75" d="M144.916 110.412C144.916 110.654 144.82 110.886 144.649 111.057C144.478 111.228 144.246 111.324 144.004 111.324H137.164C136.922 111.324 136.69 111.228 136.519 111.057C136.348 110.886 136.252 110.654 136.252 110.412V100.3C136.252 100.058 136.348 99.8262 136.519 99.6551C136.69 99.4841 136.922 99.388 137.164 99.388H144C144.12 99.388 144.238 99.4116 144.349 99.4574C144.46 99.5033 144.56 99.5704 144.645 99.6551C144.73 99.7398 144.797 99.8403 144.843 99.951C144.888 100.062 144.912 100.18 144.912 100.3L144.916 110.412Z"></path>
    <path stroke="#76b8ac" stroke-linecap="round" stroke-linejoin="round" stroke-width=".75" d="M164.98 108.949C165.055 108.951 165.126 108.981 165.18 109.034C165.233 109.088 165.263 109.159 165.265 109.234V111.267C165.263 111.342 165.233 111.413 165.18 111.467C165.126 111.52 165.055 111.55 164.98 111.552H147.785C147.71 111.55 147.639 111.52 147.585 111.467C147.532 111.413 147.502 111.342 147.5 111.267V109.234C147.502 109.159 147.532 109.088 147.585 109.034C147.639 108.981 147.71 108.951 147.785 108.949H164.98Z"></path>
    <path stroke="#76b8ac" stroke-linecap="round" stroke-linejoin="round" stroke-width=".75" d="M105.757 131.122V126.885"></path>
  </g></g></svg>