<svg xmlns="http://www.w3.org/2000/svg" fill="none" viewBox="0 0 500 500">
  
  
  
  
  
  
  
  
<g transform="matrix(2.5,0,0,2.5,0,0)"><path fill="#e6e6e6" d="M133.295 138.5L130.939 159.267L132.459 159.343L132.059 164.53L128.298 164.644C127.964 166.614 127.843 168.614 127.936 170.61L140 170.224L133.295 138.5Z"></path><path fill="#e6e6e6" d="M112.358 157.21C112.301 157.191 114.068 157.628 114.068 157.628L116.994 129.584L108.121 117.215L106.582 132.282C106.656 137.982 99.4339 143.541 93.2819 140.376L65.4289 127.684L64.8999 129.7L59.9999 127.437L61.4999 122.63C60.0186 121.807 58.4247 121.205 56.7689 120.844L67.5759 172.39L114.543 171.042L115.417 163.366L111.845 162.511C111.845 162.511 112.415 157.229 112.358 157.21Z"></path><path fill="#e6e6e6" d="M92.0089 92.554L89.2389 79.272L47.0179 73.972L54.0099 107.887L56.9929 107.07L66.4549 111.459L68.8299 107.526L73.8639 109.616C73.6179 109.882 72.5909 111.554 72.5909 111.554L87.4489 118.242C83.8579 99.261 92.0089 92.554 92.0089 92.554Z"></path><path fill="#e6e6e6" d="M98.2789 59.608C97.5569 56.816 91.5909 52.161 91.5909 52.161C89.2909 49.824 92.2909 49.387 92.2909 49.387C92.1557 49.1601 92.0894 48.8987 92.1 48.6347C92.1106 48.3707 92.1977 48.1155 92.3507 47.9001C92.5036 47.6847 92.7159 47.5184 92.9617 47.4215C93.2075 47.3245 93.4761 47.3011 93.7349 47.354C94.1149 47.525 94.3049 46.954 94.3049 46.954L41.5649 48.57L44.2999 61.623C44.2999 61.623 76.4469 64.092 90.0699 64.852C90.1699 64.852 95.5559 64.284 95.6559 64.264C98.9249 63.637 98.2789 59.608 98.2789 59.608Z"></path><path fill="#e6e6e6" d="M113.954 46.4L102.254 46.761C102.254 46.761 108.182 54.076 105.769 57.306C105.389 57.7342 104.92 58.0735 104.395 58.3001C103.87 58.5267 103.301 58.6349 102.729 58.617C102.772 59.5426 103.154 60.4201 103.802 61.0822C104.45 61.7443 105.319 62.1447 106.244 62.207L116.105 56.641L113.954 46.4Z"></path><path fill="#e6e6e6" d="M119.236 71.217L115.018 73.649V91.566L128.469 115.354L119.236 71.217Z"></path><g>
    <path fill="#76b8ac" d="M38.734 25.542C38.61 24.7829 38.2637 24.0776 37.7388 23.5153C37.214 22.953 36.5342 22.559 35.7854 22.383C35.0366 22.2071 34.2525 22.2571 33.5321 22.5269C32.8118 22.7966 32.1876 23.2738 31.7385 23.8983C31.2894 24.5228 31.0356 25.2664 31.0091 26.0351C30.9827 26.8039 31.1848 27.5632 31.5899 28.217C31.9949 28.8709 32.5848 29.39 33.2849 29.7086C33.985 30.0272 34.7639 30.131 35.523 30.007C36.5409 29.8407 37.451 29.2768 38.0532 28.4395C38.6553 27.6022 38.9002 26.5599 38.734 25.542V25.542Z"></path>
    <path fill="#76b8ac" d="M87.487 118.242C87.392 117.842 82.338 115.923 82.338 115.923L88.931 124.473C88.931 124.473 88 121.11 87.487 118.242Z"></path>
    <path fill="#76b8ac" d="M99.172 41.882C99.0761 41.7232 98.9487 41.5856 98.7978 41.4778C98.6468 41.37 98.4754 41.2941 98.294 41.2549C98.1127 41.2157 97.9252 41.214 97.7432 41.2498C97.5612 41.2856 97.3884 41.3583 97.2354 41.4633C97.0824 41.5683 96.9525 41.7034 96.8537 41.8604C96.7548 42.0174 96.6891 42.193 96.6605 42.3763C96.6319 42.5596 96.641 42.7468 96.6874 42.9265C96.7337 43.1061 96.8163 43.2744 96.93 43.421C96.6687 43.2852 96.3701 43.2388 96.08 43.2889C95.7898 43.339 95.5241 43.483 95.3235 43.6986C95.123 43.9142 94.9987 44.1897 94.9697 44.4827C94.9407 44.7758 95.0086 45.0702 95.163 45.321C94.9044 45.267 94.6356 45.2901 94.3899 45.3873C94.1442 45.4846 93.9325 45.6517 93.7808 45.8681C93.6292 46.0844 93.5443 46.3405 93.5367 46.6046C93.5291 46.8687 93.5991 47.1293 93.738 47.354C93.4779 47.2947 93.206 47.3138 92.9567 47.409C92.7074 47.5041 92.4919 47.6709 92.3374 47.8885C92.1829 48.106 92.0963 48.3644 92.0886 48.6312C92.0809 48.8979 92.1524 49.1609 92.294 49.387C92.0037 49.324 91.7007 49.3585 91.4319 49.4849C91.1631 49.6114 90.9434 49.8229 90.8069 50.0867C90.6703 50.3505 90.6244 50.652 90.6763 50.9445C90.7282 51.237 90.875 51.5043 91.094 51.705L94.818 54.973C96.471 56.587 97.991 58.316 98.276 59.589C98.048 57.424 97.076 55.295 96.699 55.144C92.823 53.681 94.099 50.144 96.186 51.496C97.193 52.142 97.516 51.99 97.497 51.363C97.091 48.348 99.056 43.028 102.944 47.71C102.379 46.956 100.851 44.731 99.172 41.882Z"></path>
    <path fill="#76b8ac" d="M109.147 107.735L108.14 117.482L112.89 123.789L109.147 107.735Z"></path>
    <path fill="#76b8ac" d="M102.706 58.6C101.988 58.7178 101.253 58.6657 100.559 58.448L103.827 61.069C103.245 60.3578 102.858 59.5066 102.706 58.6V58.6Z"></path>
    <path fill="#76b8ac" d="M128.451 176.931C127.811 172.862 127.759 168.722 128.299 164.639C123.988 164.614 119.689 164.195 115.455 163.385L114.714 169.863C118.457 175.202 122.637 182.688 130.046 190.326C129.799 185.832 129.266 181.358 128.451 176.931V176.931Z"></path>
    <path fill="#76b8ac" d="M178.838 73.364L176.5 69.678L154.2 83.776L156.48 73.687L152.224 72.718L148.78 87.937C148.717 88.2162 148.711 88.5051 148.76 88.787C148.809 89.069 148.914 89.3384 149.067 89.5799C149.221 89.8214 149.42 90.0303 149.655 90.1945C149.889 90.3587 150.154 90.4751 150.433 90.537L165.652 93.976L166.621 89.72L156.532 87.44L178.838 73.364Z"></path>
    <path fill="#76b8ac" d="M88.684 76.594L82.129 78.38L89.254 79.235L88.684 76.594Z"></path>
    <path fill="#76b8ac" d="M60.565 108.685C54.314 110.546 45.897 112.143 36.302 116.778C40.6391 117.966 45.0482 118.874 49.502 119.495C53.5691 120.163 57.5179 121.418 61.225 123.219C62.6132 119.142 64.3684 115.2 66.469 111.44L60.565 108.685Z"></path>
  </g><g>
    <path stroke="#76b8ac" stroke-linecap="round" stroke-linejoin="round" stroke-width=".75" d="M127.937 170.605L140.021 170.224L133.314 138.4"></path>
    <path stroke="#76b8ac" stroke-linecap="round" stroke-linejoin="round" stroke-width=".75" d="M56.8979 121.414L67.633 172.409L114.6 171.003"></path>
    <path stroke="#76b8ac" stroke-linecap="round" stroke-linejoin="round" stroke-width=".75" d="M46.9041 73.991L54.0481 107.868"></path>
    <path stroke="#76b8ac" stroke-linecap="round" stroke-linejoin="round" stroke-width=".75" d="M93.6811 47.012L41.5651 48.57L44.3011 61.623"></path>
    <path stroke="#76b8ac" stroke-linecap="round" stroke-linejoin="round" stroke-width=".75" d="M116.113 56.705L113.954 46.404L102.25 46.746"></path>
    <path stroke="#76b8ac" stroke-linecap="round" stroke-linejoin="round" stroke-width=".75" d="M128.469 115.354L119.179 71.274"></path>
    <path stroke="#76b8ac" stroke-linecap="round" stroke-linejoin="round" stroke-width=".75" d="M133.921 33.71L113.859 46.423"></path>
    <path stroke="#76b8ac" stroke-linecap="round" stroke-linejoin="round" stroke-width=".75" d="M140.021 170.224L182.732 143.188L156.608 19.348L148.267 24.63"></path>
    <path stroke="#76b8ac" stroke-linecap="round" stroke-linejoin="round" stroke-width=".75" d="M114.106 157.647L117.032 129.584L108.311 117.671"></path>
    <path stroke="#76b8ac" stroke-linecap="round" stroke-linejoin="round" stroke-width=".75" d="M87.468 118.241L72.61 111.535"></path>
    <path stroke="#76b8ac" stroke-linecap="round" stroke-linejoin="round" stroke-width=".75" d="M113.061 124.15L109.161 107.735L106.561 132.719C106.407 134.205 105.902 135.633 105.089 136.887C104.276 138.141 103.178 139.184 101.884 139.931C100.59 140.678 99.1376 141.108 97.6455 141.185C96.1534 141.262 94.6642 140.985 93.3 140.376L65.429 127.741"></path>
    <path stroke="#76b8ac" stroke-linecap="round" stroke-linejoin="round" stroke-width=".75" d="M98.26 78.969L110.04 78.038L110.876 88.678L106.449 93.903L99.096 89.704L98.26 78.969Z"></path>
    <path stroke="#76b8ac" stroke-linecap="round" stroke-linejoin="round" stroke-width=".75" d="M100.521 58.488L103.846 61.072"></path>
    <path stroke="#76b8ac" stroke-linecap="round" stroke-linejoin="round" stroke-width=".75" d="M90.09 64.852C90.09 64.852 96.721 89.419 90.622 85.79"></path>
    <path stroke="#76b8ac" stroke-linecap="round" stroke-linejoin="round" stroke-width=".75" d="M110.144 60.027V72.205L96.911 73.345L94.859 64.339"></path>
    <path stroke="#76b8ac" stroke-linecap="round" stroke-linejoin="round" stroke-width=".75" d="M115.018 57.3669V91.5669L131.585 120.845C133.596 124.395 134.434 128.49 133.979 132.545L130.939 159.259"></path>
    <path stroke="#76b8ac" stroke-linecap="round" stroke-linejoin="round" stroke-width=".75" d="M112.4 157.229L111.887 162.587C118.479 164.233 125.279 164.886 132.064 164.525L132.577 159.167C125.791 159.624 118.975 158.969 112.4 157.229V157.229Z"></path>
    <path stroke="#76b8ac" stroke-linecap="round" stroke-linejoin="round" stroke-width=".75" d="M68.8491 107.507C64.9209 113.701 61.9308 120.443 59.9761 127.513L64.9001 129.7C66.7272 122.585 69.7255 115.824 73.7721 109.693L68.8491 107.507Z"></path>
    <path stroke="#76b8ac" stroke-linecap="round" stroke-linejoin="round" stroke-width=".75" d="M95.866 96.145C95.4985 97.5775 94.7873 98.8989 93.7942 99.9947C92.801 101.091 91.5556 101.928 90.166 102.434"></path>
    <path stroke="#76b8ac" stroke-linecap="round" stroke-linejoin="round" stroke-width=".75" d="M114.315 94.7C114.315 94.7 115.987 98.31 119.215 99.089"></path>
    <path stroke="#76b8ac" stroke-linecap="round" stroke-linejoin="round" stroke-width=".75" d="M47.569 29.494C47.789 30.8376 47.6056 32.2163 47.0419 33.4557C46.4783 34.6951 45.5597 35.7395 44.4024 36.4567C43.2451 37.174 41.9011 37.5319 40.5404 37.4852C39.1796 37.4385 37.8633 36.9893 36.7579 36.1944C35.6525 35.3995 34.8077 34.2946 34.3303 33.0195C33.853 31.7444 33.7645 30.3564 34.0761 29.031C34.3878 27.7056 35.0855 26.5024 36.081 25.5735C37.0765 24.6447 38.3252 24.032 39.669 23.813C41.4697 23.5202 43.313 23.954 44.7942 25.0191C46.2754 26.0843 47.2733 27.6937 47.569 29.494V29.494Z"></path>
    <path stroke="#76b8ac" stroke-linecap="round" stroke-linejoin="round" stroke-width=".75" d="M98.26 59.6089C97.975 58.3359 96.455 56.6089 94.802 54.9919L91.078 51.7239C90.859 51.5232 90.7122 51.256 90.6603 50.9635C90.6084 50.671 90.6543 50.3695 90.7909 50.1057C90.9275 49.8419 91.1471 49.6304 91.4159 49.5039C91.6847 49.3774 91.9877 49.343 92.278 49.4059C92.1364 49.1798 92.0649 48.9168 92.0726 48.6501C92.0803 48.3834 92.1669 48.125 92.3214 47.9074C92.4759 47.6899 92.6914 47.523 92.9407 47.4279C93.19 47.3328 93.4619 47.3137 93.722 47.3729C93.5831 47.1482 93.5131 46.8877 93.5207 46.6236C93.5283 46.3595 93.6132 46.1034 93.7648 45.887C93.9165 45.6707 94.1283 45.5035 94.3739 45.4063C94.6196 45.3091 94.8884 45.286 95.147 45.3399C94.9926 45.0892 94.9247 44.7947 94.9537 44.5017C94.9827 44.2086 95.107 43.9332 95.3075 43.7176C95.5081 43.5019 95.7738 43.358 96.064 43.3079C96.3541 43.2577 96.6528 43.3041 96.914 43.4399C96.7503 43.2252 96.6514 42.9681 96.629 42.6989C96.6064 42.3932 96.6876 42.0887 96.8595 41.8348C97.0314 41.5809 97.2839 41.3924 97.5762 41.2998C97.8686 41.2073 98.1836 41.2161 98.4703 41.3248C98.757 41.4336 98.9986 41.6358 99.156 41.8989C99.977 43.2529 101.863 46.2459 102.716 47.4499"></path>
    <path stroke="#76b8ac" stroke-linecap="round" stroke-linejoin="round" stroke-width=".75" d="M146.063 16.061C146.433 14.9652 146.713 13.8412 146.9 12.7C147.772 8.653 148.774 9.376 148.971 13.137C149.081 15.247 148.754 19.028 148.61 21.137C148.522 22.43 148.136 26.172 147.641 29.877C146.864 35.691 145.783 45.533 145.133 51.423C144.965 52.9426 144.445 54.402 143.614 55.6851C142.782 56.9682 141.663 58.0396 140.345 58.814L114.932 73.744"></path>
    <path stroke="#76b8ac" stroke-linecap="round" stroke-linejoin="round" stroke-width=".75" d="M146.082 17.771C146.158 17.277 145.898 13.459 145.664 10.076C145.402 6.27596 144.256 5.76296 143.479 10.133C142.793 13.99 142.301 14.826 142.301 14.826"></path>
    <path stroke="#76b8ac" stroke-linecap="round" stroke-linejoin="round" stroke-width=".75" d="M138.444 15.168C138.444 15.168 138.592 8.66797 138.596 8.04397C138.625 4.09097 139.839 4.05197 140.819 7.54997C141.719 10.759 142.605 16.935 142.605 16.935"></path>
    <path stroke="#76b8ac" stroke-linecap="round" stroke-linejoin="round" stroke-width=".75" d="M139.109 16.8589C139.109 16.8589 137.894 13.9329 136.772 10.8739C135.595 7.66295 133.935 7.74495 134.758 11.6529C134.85 12.0909 135.641 16.4239 135.879 17.6949C136.025 18.4749 136.107 20.4499 135.442 20.6949C133.504 21.4159 128.642 19.5749 127.937 21.1889C127.482 22.2339 130.861 23.2099 133.105 24.0959C134.415 24.6129 135.091 26.7319 134.853 28.1959C134.832 28.3289 131.471 48.1459 131.471 48.1459L106.259 62.1859C105.373 62.1029 104.544 61.7145 103.913 61.0873C103.282 60.4601 102.889 59.6331 102.801 58.7479"></path>
    <path stroke="#76b8ac" stroke-linecap="round" stroke-linejoin="round" stroke-width=".75" d="M137.3 17.106C140.296 16.4255 143.433 16.7458 146.23 18.018"></path>
    <path stroke="#76b8ac" stroke-linecap="round" stroke-linejoin="round" stroke-width=".75" d="M138.5 19.386C141.844 20.431 143.877 22.407 143.744 25.542"></path>
    <path stroke="#76b8ac" stroke-linecap="round" stroke-linejoin="round" stroke-width=".75" d="M29.272 67.208C26.842 67.3382 24.4051 67.2172 22 66.847C17.573 66.147 17.873 67.471 21.677 68.614C22.702 68.922 23.596 69.166 24.356 69.355C26.579 69.909 28.783 70.455 30.968 71.065C39.307 73.37 47.768 74.103 89.244 79.272"></path>
    <path stroke="#76b8ac" stroke-linecap="round" stroke-linejoin="round" stroke-width=".75" d="M28.4 61.775L23.346 58.906C20.113 57.069 20.366 55.696 24.372 57.306C24.808 57.481 29.233 59.253 30.547 59.757C31.305 60.047 33.4 60.632 33.739 60.099C34.715 58.564 33.322 53.812 35.069 53.582C36.209 53.431 36.852 56.661 37.539 58.864C37.939 60.137 40.066 61.296 41.624 61.41C41.757 61.429 90.092 64.848 90.092 64.848L95.963 64.202C100.333 63.043 97.446 55.461 96.704 55.178C92.851 53.706 94.099 50.184 96.191 51.53C97.403 52.31 97.536 51.93 97.473 51.114C97.208 47.685 99.773 42.002 104.266 49.687C110.548 60.426 100.523 58.487 100.523 58.487"></path>
    <path stroke="#76b8ac" stroke-linecap="round" stroke-linejoin="round" stroke-width=".75" d="M29.3861 62C29.3861 62 21.1611 60 20.6081 59.854C16.3431 58.716 16.3361 60.189 19.8861 61.545C23.2521 62.83 27.3341 64.47 27.3341 64.47"></path>
    <path stroke="#76b8ac" stroke-linecap="round" stroke-linejoin="round" stroke-width=".75" d="M28.778 64.662C26.0093 64.3792 23.257 63.9543 20.532 63.3889C16.182 62.5109 16.373 63.8219 19.962 65.1179C22.1673 65.9655 24.427 66.6638 26.726 67.2079"></path>
    <path stroke="#76b8ac" stroke-linecap="round" stroke-linejoin="round" stroke-width=".75" d="M29.8 60.882C28.7643 63.4868 28.7643 66.3891 29.8 68.994"></path>
    <path stroke="#76b8ac" stroke-linecap="round" stroke-linejoin="round" stroke-width=".75" d="M32.046 62.5C32.787 65.73 34.611 67.991 37.898 68.637"></path>
    <path stroke="#76b8ac" stroke-linecap="round" stroke-linejoin="round" stroke-width=".75" d="M115.455 163.385L114.277 173.739C117.977 178.945 121.915 187.001 130.065 195C130.165 188.931 129.629 182.869 128.465 176.912C127.787 172.846 127.74 168.7 128.324 164.62"></path>
    <path stroke="#76b8ac" stroke-linecap="round" stroke-linejoin="round" stroke-width=".75" d="M155.81 172.01C165.177 174.879 164.36 161.561 173.727 164.43"></path>
    <path stroke="#76b8ac" stroke-linecap="round" stroke-linejoin="round" stroke-width=".75" d="M39.323 137.583L42.8 136.804"></path>
    <path stroke="#76b8ac" stroke-linecap="round" stroke-linejoin="round" stroke-width=".75" d="M48.9561 135.398L52.4331 134.619"></path>
    <path stroke="#76b8ac" stroke-linecap="round" stroke-linejoin="round" stroke-width=".75" d="M44.396 129.546L45.194 133.023"></path>
    <path stroke="#76b8ac" stroke-linecap="round" stroke-linejoin="round" stroke-width=".75" d="M46.5811 139.179L47.3601 142.656"></path>
    <path stroke="#76b8ac" stroke-linecap="round" stroke-linejoin="round" stroke-width=".75" d="M40.197 132.51L43.218 134.41"></path>
    <path stroke="#76b8ac" stroke-linecap="round" stroke-linejoin="round" stroke-width=".75" d="M48.557 137.792L51.559 139.692"></path>
    <path stroke="#76b8ac" stroke-linecap="round" stroke-linejoin="round" stroke-width=".75" d="M49.469 130.42L47.569 133.441"></path>
    <path stroke="#76b8ac" stroke-linecap="round" stroke-linejoin="round" stroke-width=".75" d="M44.187 138.761L42.287 141.782"></path>
    <path stroke="#76b8ac" stroke-linecap="round" stroke-linejoin="round" stroke-width=".75" d="M150.433 90.559C150.154 90.4971 149.889 90.3807 149.655 90.2165C149.42 90.0522 149.221 89.8434 149.067 89.6019C148.914 89.3604 148.809 89.0909 148.76 88.809C148.711 88.5271 148.717 88.2382 148.78 87.959L152.2 72.74L156.456 73.709L154.2 83.776L176.506 69.676L178.843 73.362L156.518 87.462L166.607 89.742L165.633 94L150.433 90.559Z"></path>
    <path stroke="#76b8ac" stroke-linecap="round" stroke-linejoin="round" stroke-width=".75" d="M172.188 53.396L175.779 48.304L170.725 44.808L174.297 39.716L169.205 36.011L172.796 30.938L167.571 27.252"></path>
    <path stroke="#76b8ac" stroke-linecap="round" stroke-linejoin="round" stroke-width=".75" d="M176.292 43.421L179.882 38.329L174.829 34.833L178.4 29.741L173.309 26.036L176.9 20.963L171.675 17.277"></path>
    <path stroke="#76b8ac" stroke-linecap="round" stroke-linejoin="round" stroke-width=".75" d="M66.493 111.44L57.031 107.051C50.931 108.913 42.04 110.109 31.875 115.316C37.5922 117.341 43.5095 118.749 49.526 119.516C53.5864 120.169 57.5286 121.415 61.226 123.216"></path>
    <path stroke="#76b8ac" stroke-linecap="round" stroke-linejoin="round" stroke-width=".75" d="M82.129 78.38L88.684 76.594L92.028 92.554C92.028 92.554 82.148 100.078 88.928 124.473L82.335 115.923"></path>
  </g></g></svg>