<svg xmlns="http://www.w3.org/2000/svg" fill="none" viewBox="0 0 500 500">
  
  
  
  
  
<g transform="matrix(2.5,0,0,2.5,0,0)"><path fill="#e6e6e6" d="M42.891 151.685C37.777 142.931 30.991 135.475 27.785 136.71C23.446 138.382 29.333 151.79 32.709 157.646C38.384 167.473 45.24 174.138 48.1 172.6C52.257 170.284 45.466 156.092 42.891 151.685Z"></path><path fill="#e6e6e6" d="M78.053 131.061C72.416 121.31 65.579 114.721 62.76 116.361C59.923 117.998 62.208 127.216 67.826 136.966C73.444 146.716 80.3 153.287 83.118 151.666C85.956 150.029 83.671 140.811 78.053 131.061Z"></path><path fill="#e6e6e6" d="M135.832 56.846C135.299 53.38 132.366 49.8 129.624 48.067C129.338 47.877 129.053 47.705 128.767 47.534C122.559 51.834 111.208 58.789 97.877 60.903C96.849 61.074 95.592 60.826 94.811 61.531C92.355 63.721 91.86 71.377 85.785 71.548C84.946 73.682 84.185 75.738 83.366 77.49C84.359 76.099 91.616 77.418 93.459 77.833C95.267 78.233 103.066 80.358 102.734 82.023C104.105 79.07 103.572 76.081 102.677 72.957C113.551 70.863 128.615 63.169 135.832 56.846Z"></path><g>
    <path fill="#76b8ac" d="M83.137 151.666C81.404 152.676 78.167 150.581 74.625 146.581C74.6869 147.961 75.0784 149.307 75.767 150.505C78.167 154.999 78.053 166.083 80.719 165.305C81.462 165.076 82.338 161.305 83.119 156.983C83.5232 154.895 84.0576 152.834 84.719 150.812C84.388 150.981 83.469 151.445 83.137 151.666Z"></path>
    <path fill="#76b8ac" d="M94.221 56.161C94.5707 57.1777 95.0856 58.1298 95.745 58.979C97.42 58.732 99.282 58.224 99.629 57.456C99.6897 57.3266 99.7408 57.1929 99.782 57.056C99.344 58.446 96.811 57.513 94.221 56.161Z"></path>
    <path fill="#76b8ac" d="M96.468 45.934C93.097 42.392 82.109 45.172 74.663 50.562C67.179 55.97 69.331 61.036 79.024 58.713C78.453 58.884 72.244 60.75 68.188 65.413C62.227 72.269 67.407 74.897 74.088 73.526C82.067 71.888 88.923 65.337 91.246 60.804C92.313 58.1333 93.0367 55.3379 93.4 52.485C90.62 50.219 92.315 48.162 93.838 49.724C94.657 50.562 95.571 50.162 94.562 47.424C95.579 46.793 96.8 46.591 96.468 45.934Z"></path>
    <path fill="#76b8ac" d="M121.892 156.656C121.54 152.134 121.591 147.59 122.044 143.077C118.431 144.097 114.598 144.038 111.018 142.906C111.094 146.068 110.104 147.667 110.923 149.629C111.415 150.729 112.113 151.724 112.979 152.561C116.56 156.18 119.626 166.844 121.968 165.321C122.616 164.9 122.368 161.036 121.892 156.656Z"></path>
    <path fill="#76b8ac" d="M186.489 142.278C187.86 137.536 192.431 138.983 194.945 136.126C195.402 140.488 193.002 144.868 188.66 145.077L186.489 142.278Z"></path>
    <path fill="#76b8ac" d="M86.07 76.881C85.8987 77.7648 85.6305 78.6271 85.27 79.452C82.166 77.909 82.89 76.9 86.07 76.881Z"></path>
    <path fill="#76b8ac" d="M102.753 82C102.676 82.362 102.162 82.591 101.305 82.7C101.629 82.11 101.915 81.576 102.162 81.043C102.6 81.413 102.809 81.737 102.753 82Z"></path>
    <path fill="#76b8ac" d="M111.284 111.217L109.284 116.949C109.208 114.721 109.132 112.531 109.093 110.379L111.284 111.217Z"></path>
  </g><g>
    <path stroke="#76b8ac" stroke-linecap="round" stroke-linejoin="round" stroke-width=".75" d="M84.718 150.809C84.0585 152.831 83.5242 154.892 83.118 156.98C82.346 161.304 81.463 165.08 80.718 165.302C78.057 166.102 78.157 155.002 75.766 150.502C75.076 149.305 74.6843 147.959 74.624 146.578"></path>
    <path stroke="#76b8ac" stroke-linecap="round" stroke-linejoin="round" stroke-width=".75" d="M150.629 79.147C150.249 78.532 149.739 78.0081 149.134 77.6123C148.529 77.2165 147.845 76.9586 147.129 76.8568C146.413 76.755 145.684 76.8118 144.993 77.0232C144.302 77.2345 143.665 77.5953 143.129 78.08C142.917 77.3566 142.54 76.6918 142.03 76.1373C141.519 75.5828 140.887 75.1535 140.183 74.8827C139.48 74.6119 138.723 74.5068 137.972 74.5757C137.221 74.6446 136.497 74.8856 135.854 75.28C135.298 75.6223 134.815 76.071 134.433 76.6004C134.05 77.1298 133.776 77.7295 133.626 78.365C132.835 77.7688 131.883 77.4254 130.894 77.3797C129.905 77.3341 128.925 77.5884 128.083 78.1092C127.241 78.6301 126.576 79.3933 126.175 80.2987C125.774 81.2041 125.657 82.2094 125.837 83.183C125.194 83.0146 124.524 82.9768 123.867 83.0718C123.209 83.1667 122.578 83.3926 122.009 83.736C121.367 84.1301 120.825 84.6663 120.423 85.3033C120.021 85.9403 119.771 86.661 119.692 87.4099C119.613 88.1589 119.707 88.9159 119.967 89.6228C120.226 90.3297 120.645 90.9675 121.19 91.487C120.522 91.7502 119.92 92.1562 119.426 92.6765C118.932 93.1968 118.557 93.8189 118.329 94.4991C118.1 95.1794 118.023 95.9014 118.103 96.6146C118.182 97.3278 118.417 98.015 118.79 98.628C119.311 99.4894 120.09 100.166 121.015 100.562C121.941 100.958 122.968 101.054 123.951 100.837L150.536 84.537C151.205 84.134 152.018 81.39 150.629 79.147Z"></path>
    <path stroke="#76b8ac" stroke-linecap="round" stroke-linejoin="round" stroke-width=".75" d="M130.462 86.707C131.09 87.2989 131.495 88.0892 131.609 88.9448C131.723 89.8004 131.539 90.6691 131.087 91.4046C130.635 92.1402 129.944 92.6978 129.13 92.9834C128.315 93.2691 127.427 93.2654 126.615 92.973"></path>
    <path stroke="#76b8ac" stroke-linecap="round" stroke-linejoin="round" stroke-width=".75" d="M142.307 83.356C142.201 84.1264 141.861 84.8453 141.331 85.4145C140.801 85.9837 140.108 86.3753 139.348 86.5357C138.587 86.6962 137.795 86.6177 137.08 86.3109C136.366 86.0041 135.764 85.4841 135.356 84.822C135.183 84.5361 135.049 84.2288 134.956 83.908"></path>
    <path stroke="#76b8ac" stroke-linecap="round" stroke-linejoin="round" stroke-width=".75" d="M143.126 78.08C142.614 78.563 142.189 79.1302 141.869 79.757"></path>
    <path stroke="#76b8ac" stroke-linecap="round" stroke-linejoin="round" stroke-width=".75" d="M122.924 91.166C122.333 91.1957 121.749 91.304 121.187 91.488"></path>
    <path stroke="#76b8ac" stroke-linecap="round" stroke-linejoin="round" stroke-width=".75" d="M133.623 78.366C133.498 78.9866 133.478 79.6236 133.562 80.251"></path>
    <path stroke="#76b8ac" stroke-linecap="round" stroke-linejoin="round" stroke-width=".75" d="M127.721 84.067C127.15 83.6627 126.511 83.3637 125.834 83.184"></path>
    <path stroke="#76b8ac" stroke-linecap="round" stroke-linejoin="round" stroke-width=".75" d="M157.409 90.154C155.996 87.827 153.08 87.412 152.572 87.793L125.967 104.114C125.206 104.571 124.161 107.336 125.606 109.674C125.982 110.285 126.487 110.807 127.085 111.202C127.684 111.598 128.362 111.857 129.072 111.962C129.782 112.066 130.506 112.014 131.194 111.809C131.881 111.604 132.516 111.251 133.052 110.774C133.357 111.823 134.005 112.74 134.891 113.379C135.777 114.018 136.851 114.342 137.943 114.301C139.035 114.259 140.082 113.854 140.917 113.149C141.752 112.445 142.327 111.481 142.552 110.412C143.338 111.014 144.288 111.365 145.277 111.418C146.266 111.472 147.248 111.225 148.095 110.71C148.941 110.195 149.612 109.437 150.02 108.534C150.427 107.631 150.552 106.626 150.379 105.651C151.434 105.918 152.548 105.827 153.546 105.393C154.544 104.958 155.37 104.204 155.893 103.25C156.416 102.295 156.607 101.194 156.436 100.118C156.265 99.0434 155.742 98.0555 154.949 97.31C155.624 97.0539 156.235 96.6523 156.738 96.1337C157.24 95.615 157.623 94.9921 157.858 94.309C158.092 93.626 158.174 92.8996 158.096 92.1815C158.019 91.4634 157.784 90.7712 157.409 90.154Z"></path>
    <path stroke="#76b8ac" stroke-linecap="round" stroke-linejoin="round" stroke-width=".75" d="M141.507 104.723C141.311 104.06 140.937 103.464 140.425 103C139.913 102.536 139.284 102.222 138.605 102.092C137.926 101.962 137.225 102.022 136.578 102.264C135.931 102.507 135.363 102.922 134.937 103.466C134.52 104.003 134.251 104.64 134.156 105.313"></path>
    <path stroke="#76b8ac" stroke-linecap="round" stroke-linejoin="round" stroke-width=".75" d="M149.868 95.7C149.135 95.4469 148.341 95.426 147.595 95.6403C146.85 95.8545 146.188 96.2934 145.701 96.8971C145.214 97.5009 144.924 98.2402 144.873 99.0142C144.821 99.7883 145.009 100.56 145.411 101.223C145.583 101.511 145.795 101.774 146.04 102.004"></path>
    <path stroke="#76b8ac" stroke-linecap="round" stroke-linejoin="round" stroke-width=".75" d="M154.952 97.315C154.281 97.563 153.572 97.6919 152.857 97.696"></path>
    <path stroke="#76b8ac" stroke-linecap="round" stroke-linejoin="round" stroke-width=".75" d="M134.106 109.4C133.821 109.908 133.466 110.373 133.052 110.783"></path>
    <path stroke="#76b8ac" stroke-linecap="round" stroke-linejoin="round" stroke-width=".75" d="M150.382 105.656C149.769 105.48 149.189 105.205 148.665 104.842"></path>
    <path stroke="#76b8ac" stroke-linecap="round" stroke-linejoin="round" stroke-width=".75" d="M142.609 108.377C142.7 109.056 142.681 109.744 142.555 110.417"></path>
    <path stroke="#76b8ac" stroke-linecap="round" stroke-linejoin="round" stroke-width=".75" d="M125.967 104.114L123.13 105.827"></path>
    <path stroke="#76b8ac" stroke-linecap="round" stroke-linejoin="round" stroke-width=".75" d="M123.949 100.838L121.149 102.533"></path>
    <path stroke="#76b8ac" stroke-linecap="round" stroke-linejoin="round" stroke-width=".75" d="M109.19 114.302L78.948 132.66"></path>
    <path stroke="#76b8ac" stroke-linecap="round" stroke-linejoin="round" stroke-width=".75" d="M108.58 110.169L77.024 129.347"></path>
    <path stroke="#76b8ac" stroke-linecap="round" stroke-linejoin="round" stroke-width=".75" d="M135.432 57.189C142.205 56.5626 149.015 57.9062 155.042 61.0584C161.069 64.2105 166.058 69.0369 169.407 74.957C179.523 92.342 174.224 114.795 157.58 125.1C147.169 131.546 144.28 128.138 124.063 133.9"></path>
    <path stroke="#76b8ac" stroke-linecap="round" stroke-linejoin="round" stroke-width=".75" d="M83.336 151.518C92.584 146.695 100.849 142.479 109.361 139.002"></path>
    <path stroke="#76b8ac" stroke-linecap="round" stroke-linejoin="round" stroke-width=".75" d="M84.394 100.133C77.977 105.275 70.949 110.284 62.741 116.34"></path>
    <path stroke="#76b8ac" stroke-linecap="round" stroke-linejoin="round" stroke-width=".75" d="M111.97 70.234C107.979 76.2346 103.501 81.897 98.582 87.164"></path>
    <path stroke="#76b8ac" stroke-linecap="round" stroke-linejoin="round" stroke-width=".75" d="M128.748 47.553C131.966 49.362 135.242 53.076 135.832 56.846C128.614 63.169 113.551 70.863 102.677 72.957C103.572 76.081 104.105 79.071 102.734 82.023C103.066 80.36 95.381 78.262 93.459 77.833C91.583 77.414 84.351 76.112 83.366 77.49C84.185 75.738 84.947 73.681 85.785 71.548C91.86 71.377 92.345 63.71 94.811 61.531C95.588 60.845 96.811 61.075 97.877 60.903C111.2 58.736 122.559 51.838 128.767 47.534L128.748 47.553Z"></path>
    <path stroke="#76b8ac" stroke-linecap="round" stroke-linejoin="round" stroke-width=".75" d="M84.456 80.88C89.9081 80.7933 95.2775 82.2194 99.968 85"></path>
    <path stroke="#76b8ac" stroke-linecap="round" stroke-linejoin="round" stroke-width=".75" d="M99.694 57.259C99.073 58.345 96.673 57.441 94.221 56.159C94.5704 57.1758 95.0854 58.128 95.745 58.977"></path>
    <path stroke="#76b8ac" stroke-linecap="round" stroke-linejoin="round" stroke-width=".75" d="M97.171 60.974C95.844 60.648 96.199 60.002 95.745 58.979C99.325 58.45 99.945 57.791 99.798 55.997C99.583 53.391 98.053 47.713 96.468 45.934"></path>
    <path stroke="#76b8ac" stroke-linecap="round" stroke-linejoin="round" stroke-width=".75" d="M102.677 72.957C101.572 73.167 100.506 73.319 99.515 73.415"></path>
    <path stroke="#76b8ac" stroke-linecap="round" stroke-linejoin="round" stroke-width=".75" d="M94.564 47.42C95.573 50.162 94.664 50.562 93.84 49.72C92.316 48.159 90.622 50.22 93.402 52.481C93.0396 55.3349 92.3165 58.1312 91.25 60.803C88.927 65.336 82.071 71.887 74.092 73.525C67.407 74.896 62.227 72.268 68.192 65.412C72.248 60.746 78.457 58.88 79.028 58.712C69.335 61.035 67.185 55.972 74.667 50.561C82.115 45.174 93.101 42.391 96.472 45.933C96.794 46.585 95.543 46.815 94.564 47.42Z"></path>
    <path stroke="#76b8ac" stroke-linecap="round" stroke-linejoin="round" stroke-width=".75" d="M85.785 71.548C86.7908 68.8266 88.087 66.2216 89.651 63.778C90.2693 62.8529 90.7984 61.8712 91.231 60.846"></path>
    <path stroke="#76b8ac" stroke-linecap="round" stroke-linejoin="round" stroke-width=".75" d="M98.611 87.134C99.9317 85.1894 101.121 83.1589 102.172 81.056"></path>
    <path stroke="#76b8ac" stroke-linecap="round" stroke-linejoin="round" stroke-width=".75" d="M139.984 46.62C142.859 45.934 145.226 47.23 145.03 48.334C144.986 48.5553 144.895 48.7647 144.764 48.9484C144.632 49.1322 144.464 49.2861 144.269 49.4"></path>
    <path stroke="#76b8ac" stroke-linecap="round" stroke-linejoin="round" stroke-width=".75" d="M139.717 44.868C142.745 44.144 145.754 45.668 144.459 47.268"></path>
    <path stroke="#76b8ac" stroke-linecap="round" stroke-linejoin="round" stroke-width=".75" d="M135.508 55.475C137.3 53.4297 139.599 51.8927 142.174 51.019"></path>
    <path stroke="#76b8ac" stroke-linecap="round" stroke-linejoin="round" stroke-width=".75" d="M139.869 48.676C142.669 48.105 144.513 49.209 144.402 50.295C144.265 51.628 141.602 53.647 139.355 52.352"></path>
    <path stroke="#76b8ac" stroke-linecap="round" stroke-linejoin="round" stroke-width=".75" d="M137.508 43.858C137.546 43.82 138.708 42.202 138.194 41.687C137.756 41.249 131.433 46.448 129.662 48.105"></path>
    <path stroke="#76b8ac" stroke-linecap="round" stroke-linejoin="round" stroke-width=".75" d="M141.145 44.677C146.173 42.259 147.523 39.342 146.573 39.877C143.403 41.464 140.147 42.8754 136.822 44.105C134.248 45.0843 131.83 46.4316 129.643 48.105"></path>
    <path stroke="#76b8ac" stroke-linecap="round" stroke-linejoin="round" stroke-width=".75" d="M122.044 143.077C121.595 147.59 121.544 152.134 121.892 156.656C122.377 161.035 122.615 164.901 121.968 165.321C119.624 166.842 116.553 156.187 112.979 152.561C112.111 151.725 111.413 150.73 110.923 149.629C110.102 147.664 111.097 146.062 111.017 142.89"></path>
    <path stroke="#76b8ac" stroke-linecap="round" stroke-linejoin="round" stroke-width=".75" d="M78.053 131.061C83.678 140.807 85.958 150.032 83.118 151.661C80.302 153.283 73.444 146.71 67.826 136.961C62.208 127.212 59.925 118 62.76 116.359C65.595 114.718 72.423 121.306 78.053 131.061Z"></path>
    <path stroke="#76b8ac" stroke-linecap="round" stroke-linejoin="round" stroke-width=".75" d="M49.148 167.232C47.724 158.369 39.164 143.623 32.214 138.298C28.624 135.517 26.053 136.009 26.347 140.673C26.905 149.523 36.76 166.597 44.116 171.607C48.2 174.387 49.956 172.263 49.148 167.232Z"></path>
    <path stroke="#76b8ac" stroke-linecap="round" stroke-linejoin="round" stroke-width=".75" d="M48.289 172.5L53.943 169.229C54.4877 168.802 54.858 168.191 54.9843 167.511C55.1106 166.831 54.9842 166.128 54.629 165.534C56.879 168.923 61.294 165.424 59.523 162.487C61.166 165.287 66.332 163.479 64.208 159.231C64.6894 159.855 65.3755 160.288 66.1453 160.455C66.9151 160.623 67.7193 160.513 68.416 160.145C70.716 158.677 69.863 155.822 68.436 151.175C65.7668 143.194 61.5325 135.825 55.981 129.5C54.6468 127.911 53.1193 126.494 51.434 125.284C48.769 123.631 45.771 124.87 46.802 129.367C45.954 127.954 44.959 127.03 43.278 127.481C42.8536 127.599 42.4623 127.814 42.1348 128.108C41.8072 128.403 41.5523 128.769 41.3901 129.179C41.2278 129.588 41.1626 130.03 41.1996 130.469C41.2365 130.908 41.3746 131.332 41.603 131.709C41.603 131.709 39.63 129.215 37.394 130.986C36.8387 131.419 36.4646 132.043 36.3448 132.736C36.225 133.43 36.368 134.143 36.746 134.737C36.566 134.419 36.3248 134.141 36.0364 133.917C35.748 133.693 35.4182 133.529 35.0658 133.433C34.7135 133.337 34.3458 133.313 33.9838 133.36C33.6218 133.407 33.2729 133.526 32.957 133.709L27.635 136.771"></path>
    <path stroke="#76b8ac" stroke-linecap="round" stroke-linejoin="round" stroke-width=".75" d="M186.489 142.278C184.14 143.575 181.888 145.039 179.748 146.658C173.462 151.513 167.331 157.608 168.148 158.675C168.965 159.742 176.396 155.364 182.697 150.505C184.809 148.845 186.795 147.031 188.639 145.077"></path>
    <path stroke="#76b8ac" stroke-linecap="round" stroke-linejoin="round" stroke-width=".75" d="M186.489 142.278C187.86 137.536 192.431 138.983 194.945 136.126C195.402 140.488 193.002 144.868 188.66 145.077L186.489 142.278Z"></path>
    <path stroke="#76b8ac" stroke-linecap="round" stroke-linejoin="round" stroke-width=".75" d="M180.538 146.061L183.48 149.876"></path>
    <path stroke="#76b8ac" stroke-linecap="round" stroke-linejoin="round" stroke-width=".75" d="M190.965 51.057L188.47 56.646H193.04L190.526 62.236"></path>
    <path stroke="#76b8ac" stroke-linecap="round" stroke-linejoin="round" stroke-width=".75" d="M102.162 189.107L92.031 189.411"></path>
    <path stroke="#76b8ac" stroke-linecap="round" stroke-linejoin="round" stroke-width=".75" d="M97.249 194.325L96.944 184.193"></path>
    <path stroke="#76b8ac" stroke-linecap="round" stroke-linejoin="round" stroke-width=".75" d="M86.07 76.881C85.8987 77.7648 85.6305 78.6271 85.27 79.452C82.166 77.909 82.89 76.9 86.07 76.881Z"></path>
    <path stroke="#76b8ac" stroke-linecap="round" stroke-linejoin="round" stroke-width=".75" d="M102.734 82.023C102.642 82.368 102.153 82.593 101.326 82.705"></path>
    <path stroke="#76b8ac" stroke-linecap="round" stroke-linejoin="round" stroke-width=".75" d="M86.07 76.881C85.758 79.0445 84.6597 81.0172 82.985 82.422C75.501 88.364 75.385 96.686 80.852 102.914"></path>
    <path stroke="#76b8ac" stroke-linecap="round" stroke-linejoin="round" stroke-width=".75" d="M27.302 136.979L18.864 141.763"></path>
    <path stroke="#76b8ac" stroke-linecap="round" stroke-linejoin="round" stroke-width=".75" d="M47.902 172.709L40.327 177.128"></path>
    <path stroke="#76b8ac" stroke-linecap="round" stroke-linejoin="round" stroke-width=".75" d="M36.67 179.432L31.052 182.708"></path>
    <path stroke="#76b8ac" stroke-linecap="round" stroke-linejoin="round" stroke-width=".75" d="M14.941 144.22L9.20898 147.477"></path>
    <path stroke="#76b8ac" stroke-linecap="round" stroke-linejoin="round" stroke-width=".75" d="M32.728 157.646L14.274 168.558"></path>
    <path stroke="#76b8ac" stroke-linecap="round" stroke-linejoin="round" stroke-width=".75" d="M10.599 170.863L5 174.119"></path>
    <path stroke="#76b8ac" stroke-linecap="round" stroke-linejoin="round" stroke-width=".75" d="M40.727 88.974C38.7929 90.8331 36.3509 92.0769 33.7098 92.5481C31.0688 93.0193 28.3473 92.6968 25.8896 91.6213C23.4319 90.5458 21.3483 88.7656 19.9023 86.5059C18.4563 84.2462 17.7129 81.6085 17.766 78.9263C17.8192 76.2441 18.6665 73.6378 20.2009 71.4372C21.7352 69.2366 23.8877 67.5403 26.3861 66.563C28.8845 65.5857 31.6166 65.3713 34.2369 65.9467C36.8572 66.5222 39.248 67.8617 41.107 69.796C42.3424 71.0796 43.3127 72.5941 43.9623 74.253C44.6119 75.9119 44.9281 77.6826 44.8929 79.4638C44.8576 81.245 44.4715 83.0017 43.7566 84.6336C43.0418 86.2654 42.0123 87.7404 40.727 88.974Z"></path>
    <path stroke="#76b8ac" stroke-linecap="round" stroke-linejoin="round" stroke-width=".75" d="M44.878 80C49.087 82 51.578 83.9 51.22 85.1C50.579 87.267 41.107 86.433 30.043 83.233C18.979 80.033 10.52 75.68 11.151 73.51C11.511 72.271 14.712 72.005 19.451 72.596"></path>
    <path stroke="#76b8ac" stroke-linecap="round" stroke-linejoin="round" stroke-width=".75" d="M81.6 94.153C82.152 97.619 84.1 100.797 86.723 101.619C94.914 104.181 109.099 110.398 109.099 110.398C109.276 120.206 110.164 130.998 109.214 142.278C113.756 144.19 118.854 144.305 123.478 142.601C124.278 131.956 124.791 121.748 124.601 112.321C124.558 109.975 124.015 107.666 123.007 105.547C121.998 103.429 120.549 101.55 118.755 100.038C111.354 93.9195 103.102 88.9094 94.259 85.165"></path>
    <path stroke="#76b8ac" stroke-linecap="round" stroke-linejoin="round" stroke-width=".75" d="M109.094 110.398L111.284 111.217L109.285 116.949"></path>
    <path stroke="#76b8ac" stroke-linecap="round" stroke-linejoin="round" stroke-width=".75" d="M109.609 134.755C114.239 136.344 119.224 136.588 123.987 135.46"></path>
    <path stroke="#76b8ac" stroke-linecap="round" stroke-linejoin="round" stroke-width=".75" d="M105.419 5.675V8.856"></path>
    <path stroke="#76b8ac" stroke-linecap="round" stroke-linejoin="round" stroke-width=".75" d="M111.608 11.864H108.427"></path>
    <path stroke="#76b8ac" stroke-linecap="round" stroke-linejoin="round" stroke-width=".75" d="M105.419 18.054V14.873"></path>
    <path stroke="#76b8ac" stroke-linecap="round" stroke-linejoin="round" stroke-width=".75" d="M99.23 11.864H102.412"></path>
    <path stroke="#76b8ac" stroke-linecap="round" stroke-linejoin="round" stroke-width=".75" d="M108.427 11.864C108.032 11.8651 107.64 11.788 107.275 11.6372C106.909 11.4864 106.577 11.2649 106.298 10.9853C106.018 10.7058 105.797 10.3738 105.646 10.0084C105.495 9.64294 105.418 9.25131 105.419 8.856C105.42 9.25123 105.343 9.64277 105.192 10.0081C105.042 10.3735 104.82 10.7055 104.541 10.985C104.261 11.2645 103.929 11.486 103.564 11.6369C103.199 11.7877 102.807 11.8649 102.412 11.864C102.807 11.8631 103.199 11.9403 103.564 12.0912C103.93 12.2421 104.262 12.4638 104.541 12.7434C104.82 13.023 105.042 13.3551 105.193 13.7206C105.343 14.086 105.42 14.4777 105.419 14.873C105.418 14.4776 105.495 14.0859 105.646 13.7203C105.796 13.3548 106.018 13.0227 106.297 12.743C106.577 12.4634 106.909 12.2418 107.274 12.0909C107.64 11.9401 108.032 11.8629 108.427 11.864V11.864Z"></path>
  </g></g></svg>