<svg xmlns="http://www.w3.org/2000/svg" fill="none" viewBox="0 0 500 500">
  
  
  
  
  
  
<g transform="matrix(2.5,0,0,2.5,0,0)"><path fill="#e6e6e6" d="M92.5821 61.168C93.9881 59.23 92.5441 58.185 91.8221 59.458C91.4221 60.142 90.7581 60.028 90.9481 58.09C90.4366 57.9249 89.9407 57.7151 89.4661 57.463C88.7061 62.497 88.7441 64.363 89.2191 65.214C89.7321 66.031 91.2191 65.005 92.6581 63.694C92.5251 64.91 92.8101 67.741 91.7271 68.026C94.9761 69.356 97.7271 69.584 99.5731 67.836C97.8701 67.163 97.2531 65.961 92.5821 61.168Z"></path><path fill="#e6e6e6" d="M122.146 110.452C122.146 110.452 116.14 104.959 113.746 100C111.96 96.333 109.623 91.983 105.425 90.083C105.074 86.5152 105.036 82.9235 105.311 79.349C105.518 75.618 104.601 70.149 103.311 69.299C102.466 68.801 101.558 68.4176 100.611 68.159C101.275 70.1325 101.796 72.1515 102.169 74.2L91.4691 74.485C91.1284 72.4375 90.6135 70.4229 89.9301 68.463C88.9801 68.691 88.2011 68.863 87.4981 69.071C87.5171 69.185 91.5451 84.06 87.6691 81.895C88.4291 85.257 89.7401 90.767 90.4811 91.907C87.2511 112.824 83.2621 155.152 82.5021 162.58C86.8153 164.431 91.624 164.786 96.1621 163.587C96.1621 163.587 101.785 120.328 102.662 110.449L116.74 122.361C117.936 123.385 119.344 124.131 120.862 124.546L141.418 130.226C137.683 129.126 140.828 115.857 145.142 116.11L122.146 110.452Z"></path><path fill="#e6e6e6" d="M67.77 62.953C67.352 63.029 67.2 64.017 67.143 64.587C65.6647 62.4251 64.3014 60.1866 63.059 57.881C62.698 57.102 62.259 59.705 64.237 63.428C62.869 62.516 61.463 62.497 61.159 63.143C61.0812 63.3295 61.0424 63.5299 61.045 63.732C60.8727 63.7281 60.7022 63.7679 60.5494 63.8477C60.3966 63.9274 60.2664 64.0445 60.171 64.188C60.0508 64.5812 60.0641 65.0032 60.209 65.388C59.9859 65.4459 59.7947 65.5897 59.677 65.788C59.147 66.709 60.057 69.246 62.071 69.488C62.7078 70.885 63.0937 72.3832 63.211 73.914C65.2804 72.3941 67.6964 71.4149 70.24 71.065C69.651 68.577 68.245 62.858 67.77 62.953Z"></path><path fill="#e6e6e6" d="M136.069 105.338C134.269 104.248 132.609 102.94 131.129 101.444C135.898 101.71 136.335 100.57 132.364 99.563C131.058 99.2178 129.837 98.6101 128.774 97.777C127.569 100.363 125.451 102.414 122.827 103.534C125.103 105.802 127.527 107.915 130.084 109.86C131.414 110.81 132.022 110.392 131.053 109.309C130.755 108.902 130.495 108.47 130.274 108.017C131.026 108.663 131.819 109.26 132.649 109.803C134.055 110.696 134.758 109.993 133.656 109.003C133.356 108.737 132.706 107.92 131.984 107.065C132.872 107.66 133.798 108.195 134.758 108.665C136.297 109.365 136.905 108.589 135.67 107.753C134.731 106.982 133.836 106.157 132.991 105.284C133.738 105.691 134.513 106.046 135.309 106.347C136.905 106.934 137.3 106.155 136.069 105.338Z"></path><g>
    <path fill="#76b8ac" d="M58.4 54.974C57.378 53.6476 55.9694 52.6712 54.3687 52.1797C52.768 51.6881 51.0542 51.7057 49.464 52.23C49.5886 51.6108 49.5826 50.9723 49.4464 50.3555C49.3102 49.7387 49.0468 49.1572 48.673 48.648C47.9735 47.7854 46.9642 47.2306 45.861 47.1025C44.7578 46.9743 43.6483 47.2829 42.7696 47.9622C41.891 48.6414 41.313 49.6376 41.1592 50.7375C41.0055 51.8374 41.2882 52.9538 41.947 53.848C42.3394 54.3423 42.8323 54.7477 43.3931 55.0373C43.9539 55.3269 44.5697 55.4941 45.2 55.528C44.2944 56.933 43.8466 58.5841 43.9182 60.2541C43.9899 61.924 44.5774 63.5307 45.6 64.853C46.3712 65.7444 47.2833 66.5035 48.3 67.1C49.478 64.9 49.767 62.423 49.592 62.217C48.368 60.785 49.649 59.444 50.466 61.078C50.884 61.914 51.397 60.451 51.644 59.387C52.888 59.9432 54.2177 60.2837 55.576 60.394C55.443 65.694 53.999 68.278 51.815 66.055C51.7716 66.733 51.7907 67.4135 51.872 68.088C53.6943 67.9716 55.4489 67.3528 56.941 66.3C58.6354 64.9909 59.7409 63.0627 60.0145 60.9389C60.288 58.8152 59.7073 56.6698 58.4 54.974V54.974Z"></path>
    <path fill="#76b8ac" d="M51.793 66.05C51.4412 65.6734 51.1233 65.2665 50.843 64.834C50.7561 65.4135 50.8015 66.0051 50.9759 66.5645C51.1503 67.124 51.4491 67.6366 51.85 68.064C51.7708 67.3957 51.7517 66.7217 51.793 66.05Z"></path>
    <path fill="#76b8ac" d="M40.945 83.187C39.9571 83.6692 38.942 84.094 37.905 84.459L40.3 80.318C40.4321 81.2911 40.6479 82.251 40.945 83.187V83.187Z"></path>
    <path fill="#76b8ac" d="M92.658 63.694C92.601 64.245 92.601 64.986 92.582 65.708C91.442 65.822 89.751 65.879 89.39 65.461L89.219 65.233C89.732 66.05 91.214 65.024 92.658 63.694Z"></path>
    <path fill="#76b8ac" d="M76.376 80.679C75.863 81.401 75.331 82.179 74.762 83.016V78.285C75.2272 79.1297 75.7673 79.9309 76.376 80.679V80.679Z"></path>
    <path fill="#76b8ac" d="M102.67 110.43L105.14 112.52L105.406 103.705C105.254 105.68 102.67 110.449 102.67 110.43Z"></path>
    <path fill="#76b8ac" d="M152.218 118.827C148.463 118.627 144.809 140.184 149.482 141.587C153.946 141.834 157.081 119.093 152.218 118.827Z"></path>
    <path fill="#76b8ac" d="M143.478 128.82C142.324 128.253 141.095 127.856 139.828 127.64C140.246 130.395 141.958 131.119 143.82 129.124C143.706 129.029 143.611 128.934 143.478 128.82Z"></path>
    <path fill="#76b8ac" d="M145.359 116.129C144.97 116.075 144.574 116.118 144.206 116.254C143.839 116.39 143.51 116.615 143.25 116.909C144.295 117.209 145.511 117.516 146.708 117.782C146.635 117.418 146.473 117.076 146.238 116.788C146.003 116.5 145.701 116.274 145.359 116.129V116.129Z"></path>
    <path fill="#76b8ac" d="M97.92 53.72C98.281 52.884 96.781 52.333 95.85 53.625C96.23 52.865 94.634 52.257 93.798 53.739C94.045 53.017 92.598 52.409 91.689 54.062C91.789 53.207 90.34 53.226 89.979 54.746C89.751 55.696 89.579 56.722 89.447 57.482C89.9216 57.7341 90.4176 57.9439 90.929 58.109C90.739 60.047 91.423 60.161 91.803 59.477C92.525 58.204 93.969 59.23 92.563 61.187C92.656 61.287 96.646 65.513 96.742 65.613C94.349 62.801 98.205 56.836 99.459 54.784C100.5 53.074 98.87 52.466 97.92 53.72Z"></path>
    <path fill="#76b8ac" d="M18.071 116.415L10.68 123.805C9.89 124.595 11.105 125.82 11.88 125.005L19.271 117.614C19.43 117.455 19.5193 117.239 19.5192 117.014C19.5191 116.789 19.4296 116.573 19.2705 116.414C19.1114 116.256 18.8956 116.166 18.6706 116.166C18.4457 116.166 18.23 116.256 18.071 116.415V116.415Z"></path>
    <path fill="#76b8ac" d="M28.178 99.867V104.332C28.179 105.163 28.5096 105.959 29.0971 106.547C29.6846 107.134 30.4811 107.465 31.312 107.466H35.812C35.8229 106.462 35.6327 105.466 35.2525 104.537C34.8722 103.608 34.3098 102.764 33.5982 102.056C32.8867 101.348 32.0405 100.789 31.1096 100.413C30.1786 100.037 29.1818 99.8514 28.178 99.867V99.867Z"></path>
    <path fill="#76b8ac" d="M156.321 80.622C156.226 81.078 156.055 81.933 155.884 82.822L159.342 80.105L156.321 80.622Z"></path>
    <path fill="#76b8ac" d="M144.941 68.691C144.983 68.9168 145.009 69.1454 145.017 69.375L145.817 68.292L144.941 68.691Z"></path>
    <path fill="#76b8ac" d="M159.057 54.9C159.052 54.5761 158.93 54.265 158.713 54.024C158.497 53.7831 158.2 53.6285 157.879 53.589C158.087 53.3326 158.195 53.009 158.181 52.6789C158.167 52.3489 158.033 52.0352 157.805 51.797C157.576 51.5588 157.268 51.4125 156.938 51.3856C156.609 51.3587 156.281 51.4531 156.017 51.651C155.973 51.3155 155.81 51.0071 155.556 50.7829C155.303 50.5587 154.977 50.434 154.638 50.4316C154.3 50.4293 153.972 50.5496 153.716 50.7703C153.459 50.991 153.291 51.2971 153.243 51.632C152.983 51.4299 152.658 51.3301 152.329 51.3514C152.001 51.3728 151.692 51.5138 151.46 51.7479C151.228 51.9819 151.091 52.2927 151.073 52.6215C151.055 52.9503 151.158 53.2742 151.363 53.532C151.037 53.5729 150.736 53.7316 150.519 53.9783C150.301 54.2249 150.181 54.5426 150.181 54.8715C150.181 55.2004 150.301 55.5181 150.519 55.7647C150.736 56.0114 151.037 56.1701 151.363 56.211C151.16 56.4691 151.059 56.7923 151.078 57.1198C151.097 57.4474 151.234 57.7568 151.465 57.9901C151.696 58.2233 152.004 58.3643 152.331 58.3866C152.659 58.4088 152.983 58.3108 153.243 58.111C153.282 58.4377 153.438 58.7391 153.683 58.9585C153.928 59.178 154.245 59.3004 154.574 59.3027C154.903 59.305 155.222 59.1871 155.47 58.9712C155.718 58.7553 155.879 58.4561 155.922 58.13C156.181 58.3331 156.505 58.4351 156.833 58.417C157.161 58.3989 157.472 58.262 157.707 58.0317C157.942 57.8015 158.085 57.4936 158.11 57.1656C158.134 56.8376 158.039 56.5118 157.841 56.249C158.176 56.2183 158.488 56.0624 158.713 55.8124C158.938 55.5624 159.061 55.2366 159.057 54.9V54.9Z"></path>
    <path fill="#76b8ac" d="M154.991 61.7C155.333 61.6029 155.63 61.3902 155.833 61.0981C156.035 60.806 156.13 60.4526 156.101 60.0985C156.072 59.7443 155.92 59.4112 155.673 59.1561C155.426 58.9011 155.097 58.7398 154.744 58.7C154.978 58.4498 155.122 58.1287 155.153 57.7875C155.184 57.4463 155.1 57.1046 154.914 56.8165C154.729 56.5285 154.452 56.3106 154.129 56.1975C153.805 56.0844 153.454 56.0824 153.129 56.192C153.208 55.8549 153.172 55.5009 153.025 55.1872C152.879 54.8734 152.631 54.618 152.322 54.4622C152.012 54.3064 151.66 54.2593 151.32 54.3284C150.981 54.3974 150.675 54.5787 150.451 54.843C150.371 54.4909 150.174 54.1763 149.893 53.9502C149.611 53.724 149.262 53.5998 148.901 53.5976C148.539 53.5954 148.188 53.7154 147.904 53.938C147.62 54.1607 147.419 54.4729 147.335 54.824C147.116 54.5568 146.814 54.3714 146.476 54.2978C146.139 54.2242 145.786 54.2668 145.476 54.4186C145.166 54.5703 144.916 54.8225 144.767 55.134C144.619 55.4456 144.579 55.7983 144.656 56.135C144.332 56.0187 143.979 56.0142 143.653 56.1221C143.326 56.2301 143.045 56.4442 142.855 56.7304C142.664 57.0166 142.575 57.3584 142.601 57.7013C142.628 58.0441 142.768 58.3683 143 58.622C142.648 58.661 142.321 58.8199 142.073 59.0719C141.825 59.324 141.671 59.6539 141.637 60.0061C141.604 60.3583 141.693 60.7112 141.889 61.0055C142.085 61.2998 142.377 61.5175 142.715 61.622C142.538 61.7247 142.384 61.8617 142.261 62.0251C142.138 62.1885 142.049 62.3748 142 62.5731C141.95 62.7714 141.941 62.9777 141.972 63.1796C142.004 63.3816 142.075 63.5752 142.183 63.749C143.595 57.414 146.489 60.549 146.895 63.049C146.99 63.449 147.237 63.467 147.75 62.879C148.814 61.625 150.241 63.573 148.111 65.272C147.993 65.366 147.835 66.115 147.959 67.894C148.153 67.8192 148.33 67.7068 148.48 67.5634C148.63 67.4199 148.75 67.2481 148.833 67.058C148.97 67.3836 149.215 67.6518 149.527 67.8172C149.84 67.9827 150.199 68.0352 150.546 67.9659C150.892 67.8966 151.204 67.7097 151.428 67.437C151.653 67.1642 151.776 66.8222 151.777 66.469C152.056 66.6634 152.391 66.7593 152.731 66.7416C153.07 66.7239 153.394 66.5937 153.651 66.3714C153.908 66.1492 154.084 65.8476 154.151 65.5143C154.217 65.181 154.171 64.835 154.019 64.531C154.237 64.5594 154.458 64.5407 154.668 64.4761C154.878 64.4114 155.071 64.3024 155.235 64.1565C155.399 64.0105 155.53 63.831 155.618 63.63C155.707 63.4291 155.751 63.2115 155.748 62.992C155.741 62.7302 155.668 62.4745 155.536 62.2485C155.404 62.0226 155.216 61.8339 154.991 61.7V61.7Z"></path>
    <path fill="#76b8ac" d="M149.843 88.2C149.858 88.3864 149.799 88.5713 149.677 88.7138C149.556 88.8563 149.383 88.9449 149.197 88.96C149.011 88.9751 148.826 88.9155 148.683 88.7944C148.541 88.6733 148.452 88.5004 148.437 88.314C148.422 88.1276 148.481 87.9427 148.603 87.8002C148.724 87.6577 148.897 87.5691 149.083 87.554C149.269 87.5389 149.454 87.5984 149.597 87.7196C149.739 87.8407 149.828 88.0135 149.843 88.2Z"></path>
    <path fill="#76b8ac" d="M142.566 83.358C142.581 83.5444 142.522 83.7293 142.4 83.8718C142.279 84.0143 142.106 84.1029 141.92 84.118C141.734 84.1331 141.549 84.0735 141.406 83.9524C141.264 83.8312 141.175 83.6584 141.16 83.472C141.145 83.2855 141.204 83.1007 141.326 82.9582C141.447 82.8157 141.62 82.7271 141.806 82.712C141.992 82.6969 142.177 82.7565 142.32 82.8776C142.462 82.9987 142.551 83.1716 142.566 83.358V83.358Z"></path>
    <path fill="#76b8ac" d="M149.14 77.734C149.155 77.9204 149.096 78.1053 148.974 78.2478C148.853 78.3903 148.68 78.4789 148.494 78.494C148.308 78.5091 148.123 78.4495 147.98 78.3284C147.838 78.2072 147.749 78.0344 147.734 77.848C147.719 77.6615 147.778 77.4767 147.9 77.3342C148.021 77.1917 148.194 77.1031 148.38 77.088C148.566 77.0729 148.751 77.1324 148.894 77.2536C149.036 77.3747 149.125 77.5476 149.14 77.734Z"></path>
  </g><g>
    <path stroke="#76b8ac" stroke-linecap="round" stroke-linejoin="round" stroke-width=".75" d="M127.083 107.466H119.179"></path>
    <path stroke="#76b8ac" stroke-linecap="round" stroke-linejoin="round" stroke-width=".75" d="M135.309 107.466H162C162.831 107.465 163.627 107.134 164.215 106.547C164.802 105.959 165.133 105.163 165.134 104.332V75.549"></path>
    <path stroke="#76b8ac" stroke-linecap="round" stroke-linejoin="round" stroke-width=".75" d="M165.136 61.718V59.99C165.135 59.1586 164.805 58.3615 164.217 57.7737C163.629 57.186 162.831 56.8555 162 56.855H144.92"></path>
    <path stroke="#76b8ac" stroke-linecap="round" stroke-linejoin="round" stroke-width=".75" d="M120.6 56.855H103.5C102.669 56.8558 101.872 57.1863 101.284 57.7741C100.696 58.3618 100.366 59.1588 100.365 59.99V68.026"></path>
    <path stroke="#76b8ac" stroke-linecap="round" stroke-linejoin="round" stroke-width=".75" d="M144.903 59.135H120.604V52.504H144.903V59.135Z"></path>
    <path stroke="#76b8ac" stroke-linecap="round" stroke-linejoin="round" stroke-width=".75" d="M134.777 50.3C134.777 50.6983 134.659 51.0877 134.438 51.4189C134.216 51.7501 133.902 52.0083 133.534 52.1607C133.166 52.3131 132.761 52.353 132.37 52.2753C131.979 52.1976 131.621 52.0058 131.339 51.7241C131.057 51.4425 130.865 51.0836 130.788 50.6929C130.71 50.3022 130.75 49.8973 130.902 49.5293C131.055 49.1613 131.313 48.8467 131.644 48.6254C131.975 48.4041 132.365 48.286 132.763 48.286C133.297 48.2863 133.809 48.4985 134.187 48.8762C134.564 49.2538 134.777 49.7659 134.777 50.3V50.3Z"></path>
    <path stroke="#76b8ac" stroke-linecap="round" stroke-linejoin="round" stroke-width=".75" d="M149.211 63.371H158.772V66.753"></path>
    <path stroke="#76b8ac" stroke-linecap="round" stroke-linejoin="round" stroke-width=".75" d="M122.637 69.698H106.698V63.371H122.637V69.698Z"></path>
    <path stroke="#76b8ac" stroke-linecap="round" stroke-linejoin="round" stroke-width=".75" d="M110.668 76.1H122.637V81.42H114.753"></path>
    <path stroke="#76b8ac" stroke-linecap="round" stroke-linejoin="round" stroke-width=".75" d="M106.698 90.767V87.86H107.8"></path>
    <path stroke="#76b8ac" stroke-linecap="round" stroke-linejoin="round" stroke-width=".75" d="M111.884 93.161H109.49"></path>
    <path stroke="#76b8ac" stroke-linecap="round" stroke-linejoin="round" stroke-width=".75" d="M119.939 87.86H122.637V90.862"></path>
    <path stroke="#76b8ac" stroke-linecap="round" stroke-linejoin="round" stroke-width=".75" d="M113.29 99.107H117.299"></path>
    <path stroke="#76b8ac" stroke-linecap="round" stroke-linejoin="round" stroke-width=".75" d="M119.331 101.14H114.335"></path>
    <path stroke="#76b8ac" stroke-linecap="round" stroke-linejoin="round" stroke-width=".75" d="M130.996 99.107H158.772V101.121H134.891"></path>
    <path stroke="#76b8ac" stroke-linecap="round" stroke-linejoin="round" stroke-width=".75" d="M49.4561 52.219C47.7021 52.7935 46.1992 53.9541 45.2001 55.506C44.482 55.49 43.7796 55.2924 43.1585 54.9316C42.5373 54.5708 42.0177 54.0587 41.6479 53.4428C41.2782 52.827 41.0704 52.1276 41.0439 51.4098C41.0174 50.692 41.1732 49.9792 41.4966 49.3378C41.82 48.6964 42.3005 48.1474 42.8934 47.7418C43.4863 47.3363 44.1722 47.0875 44.8872 47.0187C45.6022 46.9498 46.3229 47.0631 46.9823 47.348C47.6417 47.6329 48.2182 48.0801 48.6581 48.648C49.0519 49.1445 49.3282 49.7236 49.4664 50.342C49.6046 50.9605 49.6011 51.6021 49.4561 52.219Z"></path>
    <path stroke="#76b8ac" stroke-linecap="round" stroke-linejoin="round" stroke-width=".75" d="M63.0001 75.91C57.1671 71.31 52.4751 73.06 51.8671 68.083"></path>
    <path stroke="#76b8ac" stroke-linecap="round" stroke-linejoin="round" stroke-width=".75" d="M56.9411 66.3C55.4477 67.3522 53.6922 67.9703 51.8691 68.086C51.8691 68.086 51.7931 66.471 51.8121 66.053C53.9961 68.276 55.4401 65.692 55.5731 60.392C54.2148 60.2817 52.8851 59.9412 51.6411 59.385C51.3941 60.449 50.8811 61.911 50.4631 61.076C49.6461 59.442 48.3631 60.783 49.5891 62.215C49.7641 62.421 49.4751 64.894 48.2971 67.098C47.2785 66.5062 46.366 65.7484 45.5971 64.856C44.6181 63.5914 44.0361 62.0649 43.9247 60.4695C43.8133 58.8742 44.1774 57.2816 44.9711 55.8932C45.7648 54.5048 46.9524 53.3829 48.3836 52.6695C49.8149 51.956 51.4256 51.683 53.0121 51.8849C54.5985 52.0869 56.0895 52.7547 57.2964 53.804C58.5032 54.8533 59.3719 56.2369 59.7924 57.7798C60.213 59.3228 60.1666 60.9558 59.659 62.4724C59.1515 63.989 58.2056 65.321 56.9411 66.3V66.3Z"></path>
    <path stroke="#76b8ac" stroke-linecap="round" stroke-linejoin="round" stroke-width=".75" d="M51.869 68.083C51.4649 67.6533 51.1629 67.138 50.9853 66.5756C50.8076 66.0131 50.759 65.4178 50.843 64.834C51.1293 65.2673 51.4536 65.6742 51.812 66.05"></path>
    <path stroke="#76b8ac" stroke-linecap="round" stroke-linejoin="round" stroke-width=".75" d="M44.079 70.781C47.613 72.548 51.279 72.965 54.319 71.636"></path>
    <path stroke="#76b8ac" stroke-linecap="round" stroke-linejoin="round" stroke-width=".75" d="M58.0241 77.392C59.7531 80.451 58.0241 87.822 57.6631 90.501C57.9461 91.3537 58.3287 92.17 58.8031 92.933"></path>
    <path stroke="#76b8ac" stroke-linecap="round" stroke-linejoin="round" stroke-width=".75" d="M40.945 83.187C40.6406 82.2529 40.4243 81.2924 40.299 80.318L37.905 84.459"></path>
    <path stroke="#76b8ac" stroke-linecap="round" stroke-linejoin="round" stroke-width=".75" d="M42.35 92.933C43.049 92.1897 43.6668 91.3741 44.193 90.5C42.8603 88.1809 41.7719 85.7298 40.945 83.186C38.0421 84.5126 35.0031 85.5185 31.882 86.186C30.107 86.5806 28.251 86.3705 26.6091 85.5892C24.9672 84.808 23.6335 83.5003 22.82 81.874L14.993 66.183C16.0583 64.9097 17.3888 63.8844 18.8915 63.1788C20.3942 62.4732 22.0329 62.1044 23.693 62.098L30.571 75.986C35.7801 74.493 40.8219 72.4687 45.617 69.945C46.7617 69.2736 47.686 68.2832 48.277 67.095"></path>
    <path stroke="#76b8ac" stroke-linecap="round" stroke-linejoin="round" stroke-width=".75" d="M89.5701 56.855H72.7101"></path>
    <path stroke="#76b8ac" stroke-linecap="round" stroke-linejoin="round" stroke-width=".75" d="M48.278 56.855H31.312C30.4809 56.8561 29.6843 57.1867 29.0967 57.7744C28.5092 58.3622 28.1788 59.159 28.178 59.99V71.066"></path>
    <path stroke="#76b8ac" stroke-linecap="round" stroke-linejoin="round" stroke-width=".75" d="M62.7931 59.135H48.4301V52.504H72.7101V59.135H63.7811"></path>
    <path stroke="#76b8ac" stroke-linecap="round" stroke-linejoin="round" stroke-width=".75" d="M62.584 50.3C62.584 50.6983 62.4659 51.0877 62.2446 51.4189C62.0233 51.7501 61.7088 52.0083 61.3408 52.1607C60.9727 52.3131 60.5678 52.353 60.1771 52.2753C59.7864 52.1976 59.4276 52.0058 59.1459 51.7241C58.8643 51.4425 58.6724 51.0836 58.5947 50.6929C58.517 50.3022 58.5569 49.8973 58.7093 49.5293C58.8618 49.1613 59.1199 48.8467 59.4511 48.6254C59.7823 48.4041 60.1717 48.286 60.57 48.286C61.1041 48.2863 61.6162 48.4985 61.9939 48.8762C62.3715 49.2538 62.5838 49.7659 62.584 50.3V50.3Z"></path>
    <path stroke="#76b8ac" stroke-linecap="round" stroke-linejoin="round" stroke-width=".75" d="M64.3121 79.102V92.933H34.5231V85.561"></path>
    <path stroke="#76b8ac" stroke-linecap="round" stroke-linejoin="round" stroke-width=".75" d="M55.649 63.143H61.159"></path>
    <path stroke="#76b8ac" stroke-linecap="round" stroke-linejoin="round" stroke-width=".75" d="M34.5231 74.694V63.143H49.3231"></path>
    <path stroke="#76b8ac" stroke-linecap="round" stroke-linejoin="round" stroke-width=".75" d="M86.616 69.204H70.677V63.143H86.616V69.204Z"></path>
    <path stroke="#76b8ac" stroke-linecap="round" stroke-linejoin="round" stroke-width=".75" d="M86.6161 101.14H34.5231V99.107H86.6161V101.14Z"></path>
    <path stroke="#76b8ac" stroke-linecap="round" stroke-linejoin="round" stroke-width=".75" d="M86.616 83.491V92.933H70.677V90.482"></path>
    <path stroke="#76b8ac" stroke-linecap="round" stroke-linejoin="round" stroke-width=".75" d="M72.634 74.2H81.012"></path>
    <path stroke="#76b8ac" stroke-linecap="round" stroke-linejoin="round" stroke-width=".75" d="M185.217 177.57H14.765"></path>
    <path stroke="#76b8ac" stroke-linecap="round" stroke-linejoin="round" stroke-width=".75" d="M99.5731 67.836C97.7301 69.584 94.9731 69.356 91.7271 68.026C92.8101 67.741 92.5271 64.91 92.6581 63.694C91.2141 65.005 89.7321 66.031 89.2191 65.214C88.7441 64.359 88.7061 62.497 89.4661 57.463C89.9407 57.7151 90.4366 57.9249 90.9481 58.09C90.7581 60.028 91.4271 60.144 91.8221 59.458C92.5521 58.189 93.9881 59.23 92.5821 61.168C93.3041 61.908 96.2821 65.068 96.7621 65.594C97.514 66.5477 98.476 67.315 99.5731 67.836V67.836Z"></path>
    <path stroke="#76b8ac" stroke-linecap="round" stroke-linejoin="round" stroke-width=".75" d="M99.573 67.836C102.438 68.5358 105.045 70.035 107.091 72.159C112.706 77.471 116.94 86.301 129.021 97.093C128.433 98.6528 127.511 100.065 126.319 101.23C125.127 102.396 123.694 103.286 122.121 103.838C115.092 97.15 110.228 91.888 105.121 83.87"></path>
    <path stroke="#76b8ac" stroke-linecap="round" stroke-linejoin="round" stroke-width=".75" d="M92.658 63.694C92.601 64.245 92.601 64.986 92.582 65.708C91.442 65.822 89.751 65.879 89.39 65.461L89.219 65.233C89.732 66.05 91.214 65.024 92.658 63.694Z"></path>
    <path stroke="#76b8ac" stroke-linecap="round" stroke-linejoin="round" stroke-width=".75" d="M74.7621 78.3V83.012C75.3291 82.18 75.8621 81.405 76.3691 80.686"></path>
    <path stroke="#76b8ac" stroke-linecap="round" stroke-linejoin="round" stroke-width=".75" d="M87.6801 81.914C85.5824 85.3149 83.0623 88.4364 80.1801 91.204C77.3101 93.919 72.3111 92.992 70.0731 89.741C66.9298 84.9822 64.39 79.8512 62.5121 74.466C65.0113 72.3737 68.1281 71.1592 71.3841 71.009C72.5536 74.4673 74.2353 77.7307 76.3731 80.69C78.3331 77.853 79.7981 75.76 80.9971 74.2C83.6761 70.667 84.9841 69.782 87.5131 69.071C88.7471 68.724 90.3821 68.371 91.7131 68.026"></path>
    <path stroke="#76b8ac" stroke-linecap="round" stroke-linejoin="round" stroke-width=".75" d="M102.67 110.449C102.67 110.449 105.235 105.699 105.406 103.705L105.14 112.52"></path>
    <path stroke="#76b8ac" stroke-linecap="round" stroke-linejoin="round" stroke-width=".75" d="M87.129 79.273C87.129 79.273 89.429 90.235 90.511 91.907C87.281 112.824 83.292 155.152 82.532 162.58C86.8407 164.422 91.6404 164.777 96.173 163.587C96.173 163.587 101.773 120.328 102.673 110.449L116.732 122.342C117.928 123.366 119.336 124.112 120.854 124.527L141.41 130.207"></path>
    <path stroke="#76b8ac" stroke-linecap="round" stroke-linejoin="round" stroke-width=".75" d="M152.218 118.827C148.618 118.627 145.618 137.018 148.355 140.875C148.465 141.059 148.615 141.217 148.794 141.336C148.973 141.455 149.177 141.532 149.389 141.562C149.602 141.592 149.819 141.575 150.024 141.51C150.229 141.446 150.417 141.336 150.574 141.19C154.416 138.173 156.673 119.071 152.218 118.827Z"></path>
    <path stroke="#76b8ac" stroke-linecap="round" stroke-linejoin="round" stroke-width=".75" d="M84.6601 163.416L84.3601 165.962C84.2199 167.201 83.7588 168.382 83.0221 169.388C82.2855 170.395 81.2989 171.191 80.1601 171.699C77.1788 173.034 74.3664 174.717 71.7821 176.715C71.7043 176.777 71.6478 176.862 71.6203 176.958C71.5929 177.053 71.5958 177.155 71.6288 177.249C71.6617 177.343 71.723 177.424 71.8042 177.482C71.8855 177.539 71.9825 177.57 72.0821 177.57C80.5741 177.57 87.6981 177.494 94.4821 177.475C94.5562 175.228 94.2148 172.987 93.4751 170.864C93.3818 170.576 93.3558 170.271 93.3991 169.971C93.5641 168.697 93.9311 165.202 94.0451 163.986"></path>
    <path stroke="#76b8ac" stroke-linecap="round" stroke-linejoin="round" stroke-width=".75" d="M146.708 117.782C146.292 116.416 145.335 115.658 144.057 116.321C141.369 117.714 138.709 124.885 140.098 128.709C140.736 130.464 142.131 130.934 143.82 129.124"></path>
    <path stroke="#76b8ac" stroke-linecap="round" stroke-linejoin="round" stroke-width=".75" d="M143.269 116.908C146.205 117.723 149.186 118.364 152.198 118.827"></path>
    <path stroke="#76b8ac" stroke-linecap="round" stroke-linejoin="round" stroke-width=".75" d="M139.828 127.64C141.105 127.841 142.343 128.239 143.497 128.82C144.708 129.829 145.069 131.32 145.53 132.92C146.481 136.23 146.681 140.47 148.883 141.376"></path>
    <path stroke="#76b8ac" stroke-linecap="round" stroke-linejoin="round" stroke-width=".75" d="M61.045 63.751C61.6747 63.7817 62.2909 63.9443 62.8537 64.2284C63.4165 64.5125 63.9134 64.9116 64.312 65.4"></path>
    <path stroke="#76b8ac" stroke-linecap="round" stroke-linejoin="round" stroke-width=".75" d="M65.3001 64.359C64.9839 64.0076 64.6271 63.6951 64.2371 63.428"></path>
    <path stroke="#76b8ac" stroke-linecap="round" stroke-linejoin="round" stroke-width=".75" d="M60.817 67.285C61.3194 67.9669 61.7402 68.7053 62.071 69.485"></path>
    <path stroke="#76b8ac" stroke-linecap="round" stroke-linejoin="round" stroke-width=".75" d="M60.209 65.385C60.95 65.157 62.223 65.556 63.42 66.81"></path>
    <path stroke="#76b8ac" stroke-linecap="round" stroke-linejoin="round" stroke-width=".75" d="M63.211 73.915C63.0936 72.3842 62.7077 70.886 62.071 69.489C60.057 69.242 59.147 66.706 59.677 65.789C59.7947 65.5907 59.9859 65.4469 60.209 65.389C60.0622 65.0046 60.0488 64.5819 60.171 64.189C60.2659 64.0449 60.3959 63.9274 60.5489 63.8476C60.7018 63.7678 60.8726 63.7284 61.045 63.733C61.0435 63.531 61.0823 63.3308 61.159 63.144C61.47 62.502 62.869 62.517 64.237 63.429C62.261 59.706 62.694 57.105 63.059 57.882C64.2972 60.1901 65.6606 62.4287 67.143 64.588C67.2 64.018 67.353 63.034 67.77 62.954C68.246 62.864 69.651 68.578 70.24 71.067"></path>
    <path stroke="#76b8ac" stroke-linecap="round" stroke-linejoin="round" stroke-width=".75" d="M135.309 106.345C134.514 106.042 133.739 105.687 132.991 105.282C133.838 106.153 134.732 106.978 135.67 107.751C136.911 108.577 136.299 109.362 134.758 108.663C133.799 108.192 132.872 107.657 131.984 107.063C132.706 107.918 133.354 108.733 133.656 109.001C134.764 109.982 134.061 110.682 132.649 109.801C131.821 109.255 131.028 108.659 130.274 108.015C130.496 108.467 130.757 108.899 131.053 109.307C132.032 110.381 131.413 110.807 130.084 109.858C127.525 107.915 125.101 105.802 122.827 103.532C125.451 102.412 127.569 100.361 128.774 97.775C129.837 98.6079 131.059 99.2156 132.364 99.561C136.335 100.567 135.898 101.708 131.129 101.442C132.611 102.936 134.27 104.244 136.069 105.336C137.307 106.15 136.908 106.926 135.309 106.345Z"></path>
    <path stroke="#76b8ac" stroke-linecap="round" stroke-linejoin="round" stroke-width=".75" d="M131.186 104.2C131.623 104.485 132.25 104.884 132.991 105.283"></path>
    <path stroke="#76b8ac" stroke-linecap="round" stroke-linejoin="round" stroke-width=".75" d="M131.11 101.444C130.825 101.144 130.521 100.836 130.236 100.494"></path>
    <path stroke="#76b8ac" stroke-linecap="round" stroke-linejoin="round" stroke-width=".75" d="M129.705 105.509C130.122 105.809 130.996 106.421 131.984 107.048"></path>
    <path stroke="#76b8ac" stroke-linecap="round" stroke-linejoin="round" stroke-width=".75" d="M128.6 106.516C128.942 106.858 129.569 107.409 130.252 107.998"></path>
    <path stroke="#76b8ac" stroke-linecap="round" stroke-linejoin="round" stroke-width=".75" d="M89.4661 57.463C89.5991 56.703 89.7521 55.696 89.9791 54.746C90.3421 53.227 91.7841 53.207 91.6891 54.062C92.6011 52.409 94.0451 53.017 93.7981 53.739C94.6341 52.257 96.2301 52.865 95.8501 53.625C96.7811 52.333 98.2811 52.884 97.9201 53.72C98.8701 52.466 100.504 53.074 99.4591 54.784C98.2361 56.784 94.5351 62.513 96.5791 65.402"></path>
    <path stroke="#76b8ac" stroke-linecap="round" stroke-linejoin="round" stroke-width=".75" d="M174.521 72.168L186.775 82.617L174.521 93.047"></path>
    <path stroke="#76b8ac" stroke-linecap="round" stroke-linejoin="round" stroke-width=".75" d="M17.672 72.529L6.25403 82.275L18.489 92.705"></path>
    <path stroke="#76b8ac" stroke-linecap="round" stroke-linejoin="round" stroke-width=".75" d="M87.5281 69.071C87.5281 69.071 91.5941 84.06 87.7001 81.9"></path>
    <path stroke="#76b8ac" stroke-linecap="round" stroke-linejoin="round" stroke-width=".75" d="M103.3 69.3C104.87 70.843 105.485 76.044 105.3 79.35C105.04 82.925 105.078 86.5154 105.414 90.084C109.625 91.979 111.965 96.328 113.754 100.001C116.148 104.96 122.154 110.453 122.154 110.453L145.291 116.131"></path>
    <path stroke="#76b8ac" stroke-linecap="round" stroke-linejoin="round" stroke-width=".75" d="M89.9601 68.463C90.6432 70.4141 91.1518 72.422 91.4801 74.463L102.18 74.178C101.807 72.1295 101.286 70.1105 100.622 68.137"></path>
    <path stroke="#76b8ac" stroke-linecap="round" stroke-linejoin="round" stroke-width=".75" d="M22.953 112.729L18.66 117.022"></path>
    <path stroke="#76b8ac" stroke-linecap="round" stroke-linejoin="round" stroke-width=".75" d="M28.178 86.226V104.332C28.179 105.163 28.5096 105.959 29.0971 106.547C29.6846 107.134 30.4811 107.465 31.312 107.466H88.4"></path>
    <path stroke="#76b8ac" stroke-linecap="round" stroke-linejoin="round" stroke-width=".75" d="M33.611 102.071C34.6648 103.125 35.3825 104.468 35.6732 105.93C35.9639 107.391 35.8147 108.907 35.2443 110.284C34.6739 111.661 33.708 112.837 32.4687 113.666C31.2294 114.494 29.7724 114.936 28.282 114.936C26.7915 114.936 25.3345 114.494 24.0953 113.666C22.856 112.837 21.8901 111.661 21.3197 110.284C20.7493 108.907 20.6 107.391 20.8907 105.93C21.1814 104.468 21.8991 103.125 22.953 102.071C24.3672 100.659 26.2838 99.8664 28.282 99.8664C30.2802 99.8664 32.1968 100.659 33.611 102.071V102.071Z"></path>
    <path stroke="#76b8ac" stroke-linecap="round" stroke-linejoin="round" stroke-width=".75" d="M82.76 26.534H74.553"></path>
    <path stroke="#76b8ac" stroke-linecap="round" stroke-linejoin="round" stroke-width=".75" d="M78.666 30.637V22.43"></path>
    <path stroke="#76b8ac" stroke-linecap="round" stroke-linejoin="round" stroke-width=".75" d="M122.979 143.829C123.02 144.299 122.921 144.77 122.695 145.184C122.468 145.597 122.124 145.934 121.706 146.152C121.288 146.37 120.815 146.459 120.346 146.408C119.877 146.357 119.434 146.168 119.073 145.865C118.711 145.562 118.448 145.159 118.316 144.706C118.184 144.254 118.189 143.772 118.33 143.322C118.472 142.872 118.743 142.475 119.111 142.179C119.479 141.884 119.925 141.704 120.395 141.663C121.025 141.608 121.651 141.805 122.135 142.211C122.62 142.617 122.923 143.199 122.979 143.829V143.829Z"></path>
    <path stroke="#76b8ac" stroke-linecap="round" stroke-linejoin="round" stroke-width=".75" d="M142.167 63.732C142.059 63.5582 141.988 63.3646 141.956 63.1626C141.925 62.9607 141.934 62.7544 141.984 62.5561C142.033 62.3578 142.122 62.1715 142.245 62.0081C142.368 61.8447 142.522 61.7077 142.699 61.605C142.361 61.5005 142.069 61.2828 141.873 60.9885C141.677 60.6942 141.588 60.3413 141.621 59.9891C141.655 59.6369 141.809 59.307 142.057 59.0549C142.305 58.8029 142.632 58.644 142.984 58.605C142.752 58.3515 142.611 58.0276 142.584 57.6847C142.557 57.3419 142.646 57 142.836 56.7136C143.027 56.4271 143.307 56.2126 143.634 56.1043C143.96 55.996 144.313 56.0001 144.637 56.116C144.56 55.7793 144.6 55.4266 144.748 55.115C144.897 54.8035 145.147 54.5513 145.457 54.3996C145.768 54.2478 146.12 54.2052 146.457 54.2788C146.795 54.3524 147.097 54.5378 147.316 54.805C147.4 54.4539 147.601 54.1417 147.885 53.919C148.169 53.6964 148.521 53.5764 148.882 53.5786C149.243 53.5808 149.592 53.705 149.874 53.9312C150.155 54.1573 150.352 54.4719 150.432 54.824C150.656 54.5597 150.962 54.3784 151.301 54.3094C151.641 54.2403 151.993 54.2874 152.303 54.4432C152.612 54.599 152.86 54.8544 153.006 55.1682C153.153 55.4819 153.189 55.8359 153.11 56.173C153.435 56.0634 153.786 56.0654 154.11 56.1785C154.433 56.2916 154.71 56.5095 154.895 56.7975C155.081 57.0856 155.165 57.4273 155.134 57.7685C155.103 58.1097 154.959 58.4308 154.725 58.681C155.078 58.7208 155.407 58.8821 155.654 59.1371C155.901 59.3922 156.053 59.7253 156.082 60.0795C156.111 60.4336 156.016 60.787 155.814 61.0791C155.611 61.3712 155.314 61.5839 154.972 61.681C155.281 61.8557 155.519 62.1324 155.647 62.4636C155.774 62.7948 155.782 63.16 155.67 63.4967C155.558 63.8333 155.332 64.1205 155.031 64.309C154.731 64.4975 154.374 64.5756 154.022 64.53C154.174 64.834 154.22 65.18 154.154 65.5133C154.087 65.8466 153.911 66.1482 153.654 66.3704C153.397 66.5927 153.073 66.7229 152.734 66.7406C152.394 66.7583 152.059 66.6624 151.78 66.468C151.779 66.8212 151.656 67.1632 151.431 67.436C151.207 67.7087 150.895 67.8956 150.549 67.9649C150.202 68.0342 149.843 67.9817 149.53 67.8162C149.218 67.6508 148.973 67.3826 148.836 67.057C148.753 67.2471 148.633 67.4189 148.483 67.5624C148.333 67.7058 148.156 67.8182 147.962 67.893"></path>
    <path stroke="#76b8ac" stroke-linecap="round" stroke-linejoin="round" stroke-width=".75" d="M193.083 48.724C192.246 49.3126 191.348 49.8094 190.404 50.206C190.556 50.092 191.639 48.781 192.912 47.185C194.432 45.285 194.012 44.43 191.905 46.349C191.158 47.0382 190.357 47.6672 189.511 48.23C189.606 48.097 191.011 45.893 191.962 44.088C193.026 42.036 192.262 41.542 190.708 43.518C190.626 43.618 187.901 46.855 187.117 47.718L187.685 47.073C187.841 46.0082 188.148 44.9712 188.599 43.994C189.454 41.994 188.735 41.417 187.364 43.557C187.29 43.672 185.301 46.888 184.932 47.319C184.632 47.666 184.096 48.231 183.774 48.119C182.596 47.682 181.209 44.87 180.202 45.364C179.556 45.664 180.639 47.492 181.266 48.803C181.732 49.784 180.859 50.976 179.917 51.747C182.111 53.3251 183.795 55.5114 184.761 58.036C188.732 54.711 189.739 53.536 192.779 50.759C193.121 50.437 193.52 50.059 193.957 49.601C195.591 47.888 195.287 47.185 193.083 48.724Z"></path>
    <path stroke="#76b8ac" stroke-linecap="round" stroke-linejoin="round" stroke-width=".75" d="M159.342 80.109L156.321 80.622C156.226 81.078 156.055 81.933 155.884 82.822"></path>
    <path stroke="#76b8ac" stroke-linecap="round" stroke-linejoin="round" stroke-width=".75" d="M149.862 71.275C150.679 71.617 151.817 71.538 153.376 70.724C155.312 69.713 178.226 51.554 178.226 51.554C180.259 50.016 186.68 58.754 184.571 60.294L155.884 82.826C155.259 86.1714 154.948 89.5678 154.953 92.971"></path>
    <path stroke="#76b8ac" stroke-linecap="round" stroke-linejoin="round" stroke-width=".75" d="M143.63 72.7C144.178 72.19 144.583 71.5464 144.807 70.8324C145.031 70.1184 145.066 69.3584 144.908 68.627C143.702 68.985 140.798 69.371 142.281 63.22C143.681 57.472 146.419 60.689 146.858 62.912C146.951 63.387 147.138 63.582 147.734 62.878C148.796 61.623 150.225 63.578 148.095 65.272C147.795 65.514 147.423 70.233 149.843 71.272C147.126 76.594 145.036 77.088 143.63 72.7Z"></path>
    <path stroke="#76b8ac" stroke-linecap="round" stroke-linejoin="round" stroke-width=".75" d="M144.908 68.626C145.2 68.534 145.581 68.37 145.815 68.292L145 69.375"></path>
    <path stroke="#76b8ac" stroke-linecap="round" stroke-linejoin="round" stroke-width=".75" d="M128.983 86.169C133.333 79.425 137.228 75.341 141.844 73.725C142.502 73.5073 143.11 73.1586 143.63 72.7"></path>
    <path stroke="#76b8ac" stroke-linecap="round" stroke-linejoin="round" stroke-width=".75" d="M139.014 78.836C137.914 81.192 136.789 82.199 139.47 90.121C139.87 91.299 139.983 91.66 140.553 93.161"></path>
    <path stroke="#76b8ac" stroke-linecap="round" stroke-linejoin="round" stroke-width=".75" d="M145.625 75.625C144.485 80.584 144.77 86.397 146.119 92.819"></path>
    <path stroke="#76b8ac" stroke-linecap="round" stroke-linejoin="round" stroke-width=".75" d="M186.129 47.166C187.755 48.0354 189.026 49.4467 189.72 51.155"></path>
    <path stroke="#76b8ac" stroke-linecap="round" stroke-linejoin="round" stroke-width=".75" d="M185.692 48.724C186.737 50.567 186.792 52.295 185.392 53.739"></path>
    <path stroke="#76b8ac" stroke-linecap="round" stroke-linejoin="round" stroke-width=".75" d="M138.653 87.556C137.396 89.5958 135.875 91.4611 134.131 93.104"></path>
    <path stroke="#76b8ac" stroke-linecap="round" stroke-linejoin="round" stroke-width=".75" d="M16.2371 64.937C15.5191 63.177 14.6839 61.4672 13.7371 59.819C12.7507 58.3241 11.6039 56.9416 10.3171 55.696C8.41707 53.868 8.58907 53.15 11.0961 54.518C12.0131 55.018 20.5431 60.823 21.9071 62.252"></path>
    <path stroke="#76b8ac" stroke-linecap="round" stroke-linejoin="round" stroke-width=".75" d="M17.349 58.774C18.622 59.534 17.803 56.874 17.767 55.848C17.727 54.727 18.104 53.494 19.097 56.456C19.8232 58.4793 20.759 60.4212 21.889 62.25"></path>
    <path stroke="#76b8ac" stroke-linecap="round" stroke-linejoin="round" stroke-width=".75" d="M10.7001 56.076C10.0292 55.5759 9.3315 55.1129 8.61008 54.689C5.91008 53.177 5.81708 54.119 6.90008 54.936C7.83108 55.636 9.38908 56.736 10.1671 57.482C11.4221 58.682 14.5561 61.054 15.1451 62.44"></path>
    <path stroke="#76b8ac" stroke-linecap="round" stroke-linejoin="round" stroke-width=".75" d="M6.74803 54.822C4.98103 54.328 4.84803 54.838 5.09503 54.993C6.07103 55.609 7.76903 56.425 8.70503 56.969C9.23403 57.277 11.345 58.603 11.858 58.983"></path>
    <path stroke="#76b8ac" stroke-linecap="round" stroke-linejoin="round" stroke-width=".75" d="M58.7271 83.016L64.293 86.473"></path>
    <path stroke="#76b8ac" stroke-linecap="round" stroke-linejoin="round" stroke-width=".75" d="M142.186 63.371H128.983V93.161H158.772V80.622"></path>
    <path stroke="#76b8ac" stroke-linecap="round" stroke-linejoin="round" stroke-width=".75" d="M67.1431 64.587C67.5243 65.2963 67.8361 66.0407 68.0741 66.81"></path>
    <path stroke="#76b8ac" stroke-dasharray="2.97 4.94" stroke-linecap="round" stroke-linejoin="round" stroke-width=".75" d="M89.048 81.667L92.145 91.907L84.66 163.359"></path>
    <path stroke="#76b8ac" stroke-dasharray="2.97 4.94" stroke-linecap="round" stroke-linejoin="round" stroke-width=".75" d="M104.361 106.972L119.787 120.328L139.736 126.047"></path>
  </g></g></svg>