<svg xmlns="http://www.w3.org/2000/svg" fill="none" viewBox="0 0 500 500">
  
  
  
  
  
  
<g transform="matrix(2.5,0,0,2.5,0,0)"><path fill="#e6e6e6" d="M81.037 120.881L80.581 117.404C78.1052 117.178 75.6112 117.248 73.152 117.613C73.258 118.42 73.2707 119.236 73.19 120.045C73.057 120.745 70.226 122.591 69.884 123.788C69.523 125.023 69.257 125.988 68.744 127.607C67.908 130.248 69.844 129.26 72.278 125.764C72.5125 125.432 72.8187 125.157 73.174 124.96C73.5292 124.763 73.9243 124.648 74.33 124.624C73.7493 125.684 73.4057 126.857 73.323 128.063C71.6472 129.067 69.8255 129.804 67.923 130.248C65.51 130.818 66.042 131.711 67.676 131.768C68.8824 131.734 70.0808 131.562 71.248 131.255C70.5502 131.769 69.8204 132.239 69.063 132.661C66.802 133.861 66.631 135.169 68.797 134.523C70.4606 134 72.0554 133.279 73.547 132.376C72.8456 133.4 72.0709 134.371 71.229 135.283C69.029 137.715 69.804 138.741 71.761 137.392C73.3403 136.252 74.7702 134.918 76.017 133.421C75.6562 134.654 75.2248 135.866 74.725 137.05C73.225 140.603 74.934 140.09 76.188 138.323C78.164 135.549 81.337 129.146 81.565 127.873C81.5789 125.532 81.4023 123.193 81.037 120.881Z"></path><path fill="#e6e6e6" d="M108.283 64.755C106.155 58.276 102.146 62.988 101.483 66.218C101.293 66.845 100.913 66.883 100.134 65.895C98.519 63.824 96.034 66.902 99.393 69.695C99.754 69.98 100.593 75.129 98.937 78.815C98.6204 79.5711 98.1542 80.2553 97.5665 80.8267C96.9788 81.3981 96.2817 81.8448 95.517 82.14C98.8304 81.0538 102.249 80.3214 105.717 79.955C104.349 78.625 104.71 77.086 104.917 75.319C110.15 76.23 109.9 69.769 108.283 64.755Z"></path><path fill="#e6e6e6" d="M142.179 105.909L116.605 112.749C109.768 114.841 102.554 115.399 95.477 114.383C93.4 119.5 92.2 125.9 94.755 130.818V130.837C91.7637 137.878 88.0919 144.61 83.792 150.937C73.3495 149.481 62.9971 147.438 52.784 144.819C49.096 150.112 47.393 153.448 48.338 162.299C59.567 165.909 68.763 168.626 79.517 171.039C82.943 171.811 86.5184 171.587 89.8211 170.393C93.1238 169.199 96.0159 167.085 98.156 164.3C103.742 156.826 108.881 149.029 113.546 140.949L103.5 137.421C112.248 139.806 123.473 135.402 130.63 131.749V131.768L124.83 156.068C129.365 159.736 136.28 161.122 141.873 160.191L154.508 118.691C155.034 116.959 155.088 115.117 154.664 113.357C154.241 111.597 153.355 109.982 152.098 108.679C150.841 107.376 149.259 106.432 147.515 105.945C145.771 105.458 143.929 105.446 142.179 105.909V105.909Z"></path><path fill="#e6e6e6" d="M156.068 83.831C155.973 83.85 155.023 83.907 155.023 83.907C155.213 83.869 156.867 83.512 157.037 83.47C158.604 83.085 158.082 80.37 156.163 80.715C155.463 80.848 153.446 81.247 152.705 81.38C147.518 82.311 145.694 82.615 144.231 83.38C147.347 85.717 149.361 89.517 150.444 93.68C151.627 93.37 156.308 92.48 156.41 92.464C158.01 92.198 157.645 89.595 155.688 89.764L156.733 89.612C158.286 89.312 158 86.892 156.291 86.789C156.578 86.75 156.839 86.712 156.961 86.689C158.614 86.3 158.12 83.565 156.068 83.831Z"></path><g>
    <path fill="#76b8ac" d="M83.64 118.81C83.583 118.24 82.69 117.632 80.619 117.366L80.999 120.311C82.576 120.121 83.7 119.475 83.64 118.81Z"></path>
    <path fill="#76b8ac" d="M73.1709 117.594C70.5709 117.994 69.5309 118.657 69.5039 119.266C69.4719 119.988 70.891 120.634 72.848 120.558C73.0128 120.415 73.1373 120.232 73.209 120.026C73.2993 119.217 73.2865 118.4 73.1709 117.594Z"></path>
    <path fill="#76b8ac" d="M50.941 147.481C48.8257 146.659 46.662 145.967 44.462 145.41C38.61 148.773 30.462 152.373 22.213 159.489C22.0517 159.623 21.9329 159.801 21.871 160.002C26.9286 160.211 31.9946 160.071 37.033 159.584C40.586 159.299 44.519 158.691 48.072 159.223C47.979 154.8 48.477 151.618 50.941 147.481Z"></path>
    <path fill="#76b8ac" d="M139.424 171.8C139.124 168.152 138.493 164.086 139.101 160.5C135.017 160.634 130.969 159.697 127.359 157.783C126.589 159.812 125.923 161.88 125.364 163.977C128.898 169.924 132.546 178.341 139.841 187.156C140.052 182.034 139.912 176.903 139.424 171.8V171.8Z"></path>
    <path fill="#76b8ac" d="M151.318 79.214L156.258 78.321L144.383 13.018L137.828 5L151.318 79.214Z"></path>
    <path fill="#76b8ac" d="M137.182 5.114L133.857 14.937L145.751 80.24L150.672 79.347L137.182 5.114Z"></path>
    <path fill="#76b8ac" d="M105.832 56.851C105.686 56.5007 105.424 56.2107 105.091 56.0288C104.757 55.8469 104.372 55.784 103.998 55.8503C103.624 55.9167 103.284 56.1084 103.034 56.3939C102.784 56.6794 102.638 57.0417 102.621 57.421C102.583 57.421 102.564 57.44 102.526 57.44C102.366 57.0778 102.084 56.7836 101.729 56.6093C101.373 56.4351 100.968 56.392 100.584 56.4877C100.199 56.5834 99.8616 56.8117 99.6295 57.1323C99.3973 57.4529 99.286 57.8452 99.315 58.24C99.296 58.24 99.277 58.259 99.258 58.259C99.0686 57.8704 98.7361 57.5702 98.3302 57.4215C97.9243 57.2727 97.4766 57.287 97.0809 57.4613C96.6853 57.6355 96.3726 57.9562 96.2083 58.3561C96.0441 58.756 96.0411 59.204 96.2 59.606C96.0258 59.2903 95.7537 59.0399 95.4246 58.8925C95.0956 58.7451 94.7275 58.7088 94.376 58.789C94.1101 58.854 93.8638 58.9823 93.6581 59.1629C93.4524 59.3435 93.2933 59.5711 93.1945 59.8264C93.0956 60.0817 93.0598 60.357 93.0902 60.6291C93.1206 60.9011 93.2162 61.1618 93.369 61.389C94.49 63.498 100.228 74.746 98.936 78.789C100.57 75.103 99.736 69.954 99.392 69.669C96.048 66.895 98.518 63.798 100.133 65.869C100.912 66.857 101.273 66.819 101.482 66.192C102.147 62.962 106.156 58.25 108.282 64.729C105.555 55.933 105.988 57.32 105.832 56.851Z"></path>
    <path fill="#76b8ac" d="M91.829 98.385C90.1897 98.9621 88.6009 99.6738 87.079 100.513L90.822 96.276C91.1954 96.9603 91.5316 97.6644 91.829 98.385V98.385Z"></path>
    <path fill="#76b8ac" d="M117.213 110.146L108.473 96.485L117.365 106.726C117.439 107.868 117.388 109.015 117.213 110.146V110.146Z"></path>
    <path fill="#76b8ac" d="M115.617 137.335C114.933 138.535 114.249 139.729 113.527 140.945L102.583 137.107C106.478 138.494 111.266 138.266 115.617 137.335Z"></path>
    <path fill="#76b8ac" d="M152.781 98.993L156.296 98.347L155.27 92.723C154.244 92.951 153.028 93.123 151.77 93.388L152.781 98.993Z"></path>
    <path fill="#76b8ac" d="M153.18 81.323L152.743 78.967L149.228 79.613L149.665 81.969C150.3 81.855 152.806 81.4 153.18 81.323Z"></path>
  </g><g>
    <path stroke="#76b8ac" stroke-linecap="round" stroke-linejoin="round" stroke-width=".75" d="M132.831 182.08C127.719 187.155 121.933 191.502 115.636 195C102.507 190.535 90.536 182.08 80.448 171.231"></path>
    <path stroke="#76b8ac" stroke-linecap="round" stroke-linejoin="round" stroke-width=".75" d="M141.229 54.533C127.684 49.2788 114.495 43.1478 101.747 36.179C83.961 49.3502 65.4098 61.4554 46.191 72.431L48.68 100.779C50.3008 117.117 55.261 132.949 63.253 147.291"></path>
    <path stroke="#76b8ac" stroke-linecap="round" stroke-linejoin="round" stroke-width=".75" d="M139.538 174.727C158.329 151.718 167.715 118.753 165.245 90.557L162.756 62.228C159.374 61.128 156.011 59.986 152.705 58.808"></path>
    <path stroke="#76b8ac" stroke-linecap="round" stroke-linejoin="round" stroke-width=".75" d="M95.458 82.159C101.348 80.126 99.871 70.088 99.391 69.676C96.083 66.84 98.511 63.809 100.132 65.876C100.699 66.6 101.297 67.048 101.492 66.145C102.251 62.63 106.941 57.413 108.815 66.826C111.376 79.69 102.051 74.293 102.051 74.293"></path>
    <path stroke="#76b8ac" stroke-linecap="round" stroke-linejoin="round" stroke-width=".75" d="M72.848 120.558C70.891 120.634 69.472 119.987 69.504 119.266C69.577 117.62 75.551 117.307 77.176 117.257C78.754 117.209 83.538 117.234 83.64 118.81C83.64 119.03 83.457 120.01 80.999 120.31"></path>
    <path stroke="#76b8ac" stroke-linecap="round" stroke-linejoin="round" stroke-width=".75" d="M81.037 120.881C81.38 123.196 81.5641 125.532 81.588 127.873C81.36 129.146 78.188 135.547 76.211 138.323C74.955 140.089 73.248 140.604 74.748 137.05C75.6066 134.916 76.3176 132.726 76.876 130.495C78.436 124.567 74.063 123.313 72.335 125.726C69.856 129.189 67.964 130.21 68.801 127.569C69.313 125.954 69.58 124.985 69.941 123.75C70.221 122.799 72.088 121.385 72.823 120.595C72.9883 120.444 73.1143 120.255 73.19 120.045C73.2707 119.236 73.258 118.42 73.152 117.613C75.6112 117.248 78.1052 117.178 80.581 117.404C80.581 117.404 80.706 118.273 81.037 120.881Z"></path>
    <path stroke="#76b8ac" stroke-linecap="round" stroke-linejoin="round" stroke-width=".75" d="M76.04 133.4C74.7929 134.896 73.3631 136.23 71.784 137.371C69.826 138.719 69.05 137.696 71.252 135.262C72.7946 133.557 74.1572 131.698 75.318 129.714"></path>
    <path stroke="#76b8ac" stroke-linecap="round" stroke-linejoin="round" stroke-width=".75" d="M73.8 128.652C74.7195 129.419 75.7511 130.041 76.859 130.495"></path>
    <path stroke="#76b8ac" stroke-linecap="round" stroke-linejoin="round" stroke-width=".75" d="M73.57 132.357C72.0719 133.26 70.4703 133.98 68.8 134.5C66.635 135.149 66.8 133.828 69.066 132.638C70.8788 131.59 72.5732 130.349 74.12 128.938"></path>
    <path stroke="#76b8ac" stroke-linecap="round" stroke-linejoin="round" stroke-width=".75" d="M71.271 131.236C70.1036 131.541 68.9052 131.714 67.699 131.749C66.065 131.685 65.534 130.803 67.946 130.229C69.8489 129.787 71.671 129.049 73.346 128.044C73.4287 126.838 73.7723 125.665 74.353 124.605"></path>
    <path stroke="#76b8ac" stroke-linecap="round" stroke-linejoin="round" stroke-width=".75" d="M87.079 100.513L90.822 96.276C91.201 96.957 91.5428 97.658 91.846 98.376"></path>
    <path stroke="#76b8ac" stroke-linecap="round" stroke-linejoin="round" stroke-width=".75" d="M117.213 110.146L108.473 96.504L117.365 106.745"></path>
    <path stroke="#76b8ac" stroke-linecap="round" stroke-linejoin="round" stroke-width=".75" d="M83.64 118.81C83.317 114.649 82.84 104.921 82.88 102.717C85.38 101.524 88.94 99.293 91.846 98.38C93.729 102.902 94.697 108.927 95.458 114.402C102.535 115.427 109.751 114.869 116.586 112.768C117.241 110.831 117.506 108.784 117.365 106.745C117.265 106.503 121.842 112.752 128.423 108.626L150.729 94.908C149.608 89.664 147.062 84.762 142.768 82.463L124.414 95.063C116.586 83.169 116.585 78.3 103.875 80.163C94.716 81.508 85.203 85.68 76.287 91.753C69.64 96.28 69.487 98.764 69.276 105.395C69.0823 110.019 69.1647 114.651 69.523 119.265"></path>
    <path stroke="#76b8ac" stroke-linecap="round" stroke-linejoin="round" stroke-width=".75" d="M136.08 128.709C136.08 128.709 133.952 130.077 130.627 131.768"></path>
    <path stroke="#76b8ac" stroke-linecap="round" stroke-linejoin="round" stroke-width=".75" d="M115.6 137.449C110.41 146.798 104.575 155.775 98.139 164.315C95.9992 167.1 93.1074 169.215 89.8048 170.41C86.5022 171.605 82.9266 171.831 79.5 171.06C68.747 168.641 59.55 165.93 48.321 162.301C48.021 158.572 47.721 155.029 49.201 151.053C50.09 148.822 51.2837 146.725 52.748 144.821C62.9611 147.44 73.3135 149.483 83.756 150.939C88.1068 144.617 91.7633 137.845 94.662 130.739"></path>
    <path stroke="#76b8ac" stroke-linecap="round" stroke-linejoin="round" stroke-width=".75" d="M104.919 75.331C104.709 77.093 104.353 78.631 105.719 79.955"></path>
    <path stroke="#76b8ac" stroke-linecap="round" stroke-linejoin="round" stroke-width=".75" d="M21.871 160C21.301 159.962 20.693 159.947 20.123 159.905C19.9173 159.89 19.7211 159.812 19.5602 159.683C19.3993 159.554 19.2812 159.38 19.2216 159.182C19.162 158.985 19.1635 158.774 19.2261 158.577C19.2886 158.381 19.4092 158.208 19.572 158.081C23.4134 155.077 27.5001 152.401 31.789 150.081C35.574 148.017 38.971 146.414 41.707 144.799C42.638 144.989 43.55 145.16 44.462 145.407"></path>
    <path stroke="#76b8ac" stroke-linecap="round" stroke-linejoin="round" stroke-width=".75" d="M50.941 147.481C48.491 151.594 47.977 154.773 48.072 159.223C44.519 158.691 40.586 159.298 37.033 159.584C31.9946 160.07 26.9286 160.209 21.871 160C21.9329 159.799 22.0517 159.621 22.213 159.487C30.467 152.37 38.613 148.771 44.462 145.408C46.6604 145.972 48.8238 146.664 50.941 147.481V147.481Z"></path>
    <path stroke="#76b8ac" stroke-linecap="round" stroke-linejoin="round" stroke-width=".75" d="M139.841 187.152C139.804 187.66 139.784 188.185 139.728 188.692C139.712 188.897 139.635 189.093 139.506 189.254C139.376 189.414 139.202 189.532 139.005 189.592C138.807 189.651 138.597 189.65 138.4 189.588C138.204 189.525 138.031 189.405 137.904 189.243C131.146 180.628 127.853 172.58 124.623 167.108C124.832 166.044 125.098 165.018 125.364 163.973"></path>
    <path stroke="#76b8ac" stroke-linecap="round" stroke-linejoin="round" stroke-width=".75" d="M138.9 165.869C138.767 164.077 138.828 162.275 139.082 160.496C134.998 160.63 130.95 159.693 127.34 157.779C126.573 159.927 125.94 161.738 125.364 163.973C128.898 169.92 132.545 178.336 139.841 187.152C140.332 178.378 139.115 169.7 138.9 165.869Z"></path>
    <path stroke="#76b8ac" stroke-linecap="round" stroke-linejoin="round" stroke-width=".75" d="M140.545 81.19L161.464 77.371"></path>
    <path stroke="#76b8ac" stroke-linecap="round" stroke-linejoin="round" stroke-width=".75" d="M23.809 126.999L28.065 131.996L31.808 123.883"></path>
    <path stroke="#76b8ac" stroke-linecap="round" stroke-linejoin="round" stroke-width=".75" d="M176.436 183.315L175.885 176.95L164.561 177.938L165.112 184.303C165.168 185.054 165.372 185.786 165.713 186.457C166.053 187.128 166.524 187.725 167.097 188.213C167.671 188.7 168.335 189.069 169.052 189.298C169.769 189.527 170.525 189.611 171.275 189.546C172.024 189.48 172.754 189.267 173.42 188.917C174.087 188.568 174.678 188.089 175.158 187.509C175.638 186.93 175.998 186.26 176.218 185.54C176.437 184.82 176.511 184.064 176.436 183.315Z"></path>
    <path stroke="#76b8ac" stroke-linecap="round" stroke-linejoin="round" stroke-width=".75" d="M164.561 177.938L164.2 173.872C164.09 172.382 164.571 170.908 165.539 169.769C166.508 168.631 167.886 167.92 169.374 167.79C170.863 167.66 172.344 168.122 173.494 169.075C174.645 170.029 175.375 171.397 175.524 172.884"></path>
    <path stroke="#76b8ac" stroke-linecap="round" stroke-linejoin="round" stroke-width=".75" d="M169.767 183.809C169.79 184.079 169.919 184.328 170.125 184.503C170.332 184.677 170.599 184.763 170.869 184.74C171.139 184.717 171.388 184.588 171.563 184.382C171.737 184.175 171.823 183.908 171.8 183.638L171.648 182.038C171.625 181.768 171.497 181.519 171.29 181.344C171.083 181.17 170.816 181.084 170.546 181.107C170.276 181.13 170.027 181.259 169.852 181.465C169.678 181.672 169.592 181.939 169.615 182.209L169.767 183.809Z"></path>
    <path stroke="#76b8ac" stroke-linecap="round" stroke-linejoin="round" stroke-width=".75" d="M58.37 40.473C58.4301 41.1606 58.2849 41.8506 57.9528 42.4557C57.6208 43.0608 57.1167 43.5539 56.5045 43.8725C55.8922 44.1912 55.1992 44.3211 54.5131 44.2459C53.8269 44.1707 53.1785 43.8938 52.6498 43.4501C52.1211 43.0064 51.7358 42.4159 51.5426 41.7532C51.3495 41.0905 51.3572 40.3855 51.5648 39.7272C51.7724 39.0689 52.1705 38.4869 52.7088 38.0549C53.2471 37.6229 53.9014 37.3602 54.589 37.3C55.5111 37.2198 56.4272 37.509 57.1362 38.104C57.8452 38.6989 58.2889 39.551 58.37 40.473V40.473Z"></path>
    <path stroke="#76b8ac" stroke-linecap="round" stroke-linejoin="round" stroke-width=".75" d="M155.707 89.759C157.664 89.588 158.007 92.229 156.407 92.476C156.274 92.497 152.474 93.16 150.441 93.692C149.358 89.531 147.341 85.731 144.228 83.392C145.691 82.632 147.515 82.328 152.702 81.392C153.443 81.259 155.456 80.856 156.16 80.727C158.077 80.375 158.601 83.098 157.034 83.482C156.864 83.524 155.21 83.882 155.02 83.919C155.115 83.9 155.988 83.86 156.084 83.843C158.128 83.487 158.63 86.275 156.958 86.655L155.343 86.902C155.457 86.883 155.818 86.845 155.932 86.826C157.946 86.598 158.377 89.249 156.732 89.6C156.485 89.66 155.973 89.721 155.707 89.759Z"></path>
    <path stroke="#76b8ac" stroke-linecap="round" stroke-linejoin="round" stroke-width=".75" d="M108.283 64.736L105.851 56.851C105.694 56.5027 105.426 56.2166 105.088 56.0381C104.75 55.8595 104.363 55.7988 103.986 55.8653C103.61 55.9319 103.267 56.122 103.011 56.4056C102.755 56.6891 102.601 57.05 102.573 57.431C102.403 57.0688 102.113 56.7768 101.752 56.6048C101.391 56.4328 100.982 56.3915 100.594 56.4879C100.206 56.5844 99.8629 56.8127 99.6245 57.1337C99.386 57.4547 99.2664 57.8486 99.286 58.248C98.359 56.228 95.286 57.704 96.199 59.606C96.0249 59.2903 95.7527 59.0398 95.4237 58.8925C95.0946 58.7451 94.7266 58.7088 94.375 58.789C94.1075 58.8516 93.8591 58.9781 93.6512 59.1577C93.4432 59.3373 93.2819 59.5647 93.1811 59.8203C93.0802 60.0759 93.0428 60.3521 93.072 60.6253C93.1013 60.8985 93.1963 61.1606 93.349 61.389C94.47 63.498 100.208 74.727 98.916 78.774"></path>
    <path stroke="#76b8ac" stroke-linecap="round" stroke-linejoin="round" stroke-width=".75" d="M173.776 45.28L174.061 48.624"></path>
    <path stroke="#76b8ac" stroke-linecap="round" stroke-linejoin="round" stroke-width=".75" d="M171.192 52.044L167.848 52.348"></path>
    <path stroke="#76b8ac" stroke-linecap="round" stroke-linejoin="round" stroke-width=".75" d="M180.825 51.189L177.481 51.493"></path>
    <path stroke="#76b8ac" stroke-linecap="round" stroke-linejoin="round" stroke-width=".75" d="M174.897 58.257L174.612 54.913"></path>
    <path stroke="#76b8ac" stroke-linecap="round" stroke-linejoin="round" stroke-width=".75" d="M177.481 51.493C177.068 51.5294 176.652 51.484 176.257 51.3595C175.861 51.235 175.494 51.0337 175.176 50.7673C174.859 50.5008 174.597 50.1744 174.405 49.8066C174.214 49.4389 174.097 49.037 174.061 48.624C174.097 49.037 174.052 49.4531 173.928 49.8485C173.803 50.244 173.602 50.611 173.335 50.9286C173.069 51.2462 172.742 51.5082 172.375 51.6996C172.007 51.891 171.605 52.008 171.192 52.044C171.605 52.0076 172.021 52.053 172.417 52.1775C172.812 52.302 173.179 52.5032 173.497 52.7697C173.814 53.0361 174.076 53.3626 174.268 53.7303C174.459 54.0981 174.576 54.5 174.612 54.913C174.576 54.5 174.621 54.0839 174.746 53.6885C174.87 53.293 175.071 52.926 175.338 52.6084C175.604 52.2908 175.931 52.0288 176.298 51.8374C176.666 51.646 177.068 51.529 177.481 51.493V51.493Z"></path>
    <path stroke="#76b8ac" stroke-linecap="round" stroke-linejoin="round" stroke-width=".75" d="M113.584 140.965L102.926 137.267"></path>
    <path stroke="#76b8ac" stroke-linecap="round" stroke-linejoin="round" stroke-width=".75" d="M116.567 112.768L142.141 105.928C143.894 105.46 145.74 105.468 147.488 105.953C149.237 106.438 150.824 107.381 152.085 108.685C153.346 109.989 154.236 111.606 154.663 113.37C155.089 115.133 155.036 116.979 154.51 118.715L141.875 160.215C139.031 160.668 136.128 160.585 133.315 159.971C130.222 159.361 127.316 158.032 124.832 156.092L130.632 131.772C124.117 135.11 114.942 138.603 107.255 138.049C98.464 137.415 91.979 131.765 93.506 121.249C93.863 118.901 94.5208 116.608 95.463 114.428"></path>
    <path stroke="#76b8ac" stroke-linecap="round" stroke-linejoin="round" stroke-width=".75" d="M124.414 95.06L125.421 96.504"></path>
  </g></g></svg>